<svg width="16" height="16" viewBox="0 0 16 16" fill="currentColor" xmlns="http://www.w3.org/2000/svg">
<g clip-path="url(#clip0_1005_9042)">
<path fill-rule="evenodd" clip-rule="evenodd" d="M14.4333 2.27381C15.5315 3.71699 15.4215 5.78557 14.1036 7.10356L11.5 9.70711L10.25 8.45711L11.3536 7.35356C11.5488 7.15829 11.5488 6.84171 11.3536 6.64645C11.1583 6.45119 10.8417 6.45119 10.6465 6.64645L9.54289 7.75001L8.25 6.45711L9.35356 5.35356C9.54882 5.15829 9.54882 4.84171 9.35356 4.64645C9.1583 4.45119 8.84171 4.45119 8.64645 4.64645L7.54289 5.75001L6.29289 4.5L8.89644 1.89645C10.2144 0.578466 12.283 0.468548 13.7262 1.5667L14.6464 0.646447C14.8417 0.451184 15.1583 0.451184 15.3536 0.646446C15.5488 0.841709 15.5488 1.15829 15.3536 1.35355L14.4333 2.27381ZM1.5667 13.7262L0.646447 14.6464C0.451184 14.8417 0.451184 15.1583 0.646447 15.3536C0.841709 15.5488 1.15829 15.5488 1.35355 15.3536L2.2738 14.4333C3.71699 15.5315 5.78557 15.4215 7.10355 14.1036L9.35355 11.8536L9.70711 11.5L9.35355 11.1464L8.45711 10.25L9.35355 9.35355C9.54882 9.15829 9.54882 8.84171 9.35355 8.64645C9.15829 8.45118 8.84171 8.45118 8.64645 8.64645L7.75 9.54289L6.45711 8.25L7.35355 7.35355C7.54882 7.15829 7.54882 6.84171 7.35355 6.64645C7.15829 6.45118 6.84171 6.45118 6.64645 6.64645L5.75 7.54289L4.85355 6.64645L4.5 6.29289L4.14645 6.64645L1.89645 8.89645C0.57846 10.2144 0.468544 12.283 1.5667 13.7262ZM2.60355 9.60355L4.5 7.70711L8.29289 11.5L6.39645 13.3964C5.34907 14.4438 3.65093 14.4438 2.60355 13.3964C1.55617 12.3491 1.55617 10.6509 2.60355 9.60355Z" fill="currentColor"/>
</g>
<defs>
<clipPath id="clip0_1005_9042">
<rect width="16" height="16" fill="white"/>
</clipPath>
</defs>
</svg>
