<svg width="23px" height="22px" viewBox="0 0 23 22" version="1.1" xmlns="http://www.w3.org/2000/svg" xmlns:xlink="http://www.w3.org/1999/xlink">
    <path d="M3.4,5.82218254 C3.95228475,5.82218254 4.4,6.26989779 4.4,6.82218254 L4.4,13.9771825 L11.5556349,13.9778175 C12.1079197,13.9778175 12.5556349,14.4255327 12.5556349,14.9778175 L12.5556349,15.1778175 C12.5556349,15.7301022 12.1079197,16.1778175 11.5556349,16.1778175 L3.2,16.1778175 C2.64771525,16.1778175 2.2,15.7301022 2.2,15.1778175 L2.2,6.82218254 C2.2,6.26989779 2.64771525,5.82218254 3.2,5.82218254 L3.4,5.82218254 Z" id="Combined-Shape" fill="#CCD1F2" transform="translate(7.377817, 11.000000) rotate(-315.000000) translate(-7.377817, -11.000000) "></path>
    <path d="M10.7147222,5.82218254 C11.267007,5.82218254 11.7147222,6.26989779 11.7147222,6.82218254 L11.7147222,13.9771825 L18.8703571,13.9778175 C19.4226419,13.9778175 19.8703571,14.4255327 19.8703571,14.9778175 L19.8703571,15.1778175 C19.8703571,15.7301022 19.4226419,16.1778175 18.8703571,16.1778175 L10.5147222,16.1778175 C9.96243747,16.1778175 9.51472222,15.7301022 9.51472222,15.1778175 L9.51472222,6.82218254 C9.51472222,6.26989779 9.96243747,5.82218254 10.5147222,5.82218254 L10.7147222,5.82218254 Z" id="Combined-Shape-Copy" fill="#5567D5" transform="translate(14.692540, 11.000000) rotate(-135.000000) translate(-14.692540, -11.000000) "></path>
</svg>
