<?xml version="1.0" encoding="UTF-8"?>
<svg xmlns="http://www.w3.org/2000/svg" version="1.1" viewBox="0 -10 80 80">
  <!-- Generator: Adobe Illustrator 28.6.0, SVG Export Plug-In . SVG Version: 1.2.0 Build 709)  -->
  <g>
    <g id="Layer_1">
      <g>
        <path d="M25.2,57.2c.9,0,1.7-.6,2-1.5l1-3.2c.3-.8-.2-1.6-1-1.9-.8-.3-1.6.2-1.9,1l-.8,2.5-3.3-.5v-2.7c0-.9-.5-1.7-1.3-2-1.4-.6-2.6-1.3-3.8-2.2-.7-.5-1.7-.6-2.5-.1l-2.3,1.4-2.2-2.5,1.8-2.1c.6-.7.7-1.6.3-2.4-.7-1.3-1.2-2.7-1.5-4.1-.2-.9-.9-1.5-1.8-1.7l-2.7-.4v-3.4s2.8-.5,2.8-.5c.9-.1,1.6-.8,1.8-1.6.3-1.4.8-2.7,1.5-4,.4-.8.3-1.8-.3-2.4l-1.9-2.1,2.1-2.6,2.6,1.5c.8.4,1.7.4,2.4-.1,1.1-.8,2.3-1.5,3.6-2.1.8-.3,1.4-1.2,1.3-2.1v-2.9c-.1,0,3.2-.6,3.2-.6l1,2.9c.3.8,1.1,1.2,1.9.9.8-.3,1.2-1.1.9-1.9l-1.3-3.6c-.4-1-1.4-1.6-2.4-1.4l-4.7.9c-1.1.2-1.8,1.1-1.8,2.2v3.1c-1,.5-2.1,1.2-3.1,1.9l-2.7-1.6c-.9-.5-2.1-.3-2.8.5l-3,3.7c-.7.8-.6,2,0,2.8l2,2.2c-.6,1.2-1,2.4-1.3,3.6l-3,.5c-1,.2-1.8,1.1-1.8,2.2v4.8c0,1.1.9,2,1.9,2.1l2.8.4c.3,1.3.8,2.5,1.4,3.7l-1.9,2.2c-.7.8-.7,2,0,2.8l3.1,3.7c.7.8,1.9,1,2.8.4l2.4-1.5c1.1.8,2.3,1.5,3.5,2v2.9c0,1.1.7,2,1.8,2.2l4.8.8c.1,0,.2,0,.4,0Z" fill="#f93e3e"/>
        <path d="M25.2,23.6c.8-.1,1.4-.9,1.3-1.7s-.9-1.4-1.7-1.3c-2.5.3-4.9,1.4-6.8,3.1-5.1,4.6-5.5,12.6-.9,17.7,2.1,2.3,5,3.8,8.2,4.1,0,0,0,0,.1,0,.8,0,1.4-.6,1.5-1.4,0-.8-.5-1.6-1.4-1.6-2.4-.2-4.6-1.3-6.2-3.1-3.5-3.9-3.2-10,.7-13.5,1.5-1.3,3.2-2.1,5.2-2.4Z" fill="#f93e3e"/>
        <path d="M60.1,9.1h-10.3v-2.5c0-2.8-2.3-5.1-5.1-5.1h-13.1c-.8,0-1.5.7-1.5,1.5s.7,1.5,1.5,1.5h13.1c1.2,0,2.1.9,2.1,2.1v2.5h-12.1c-.8,0-1.5.7-1.5,1.5s.7,1.5,1.5,1.5h24v5.1h-24c-.8,0-1.5.7-1.5,1.5s.7,1.5,1.5,1.5h21.1v32c0,4-3.3,7.3-7.3,7.3h-25.9c-.8,0-1.5.7-1.5,1.5s.7,1.5,1.5,1.5h25.9c5.7,0,10.3-4.6,10.3-10.3V20.2h1.3c.8,0,1.5-.7,1.5-1.5v-8.1c0-.8-.7-1.5-1.5-1.5Z" fill="#f93e3e"/>
        <path d="M48.2,53.5v-27.9c0-.8-.7-1.5-1.5-1.5s-1.5.7-1.5,1.5v27.9c0,.8.7,1.5,1.5,1.5s1.5-.7,1.5-1.5Z" fill="#f93e3e"/>
        <path d="M38.3,53.5v-27.9c0-.8-.7-1.5-1.5-1.5s-1.5.7-1.5,1.5v27.9c0,.8.7,1.5,1.5,1.5s1.5-.7,1.5-1.5Z" fill="#f93e3e"/>
      </g>
    </g>
  </g>
</svg>