<?xml version="1.0" encoding="UTF-8"?>
<svg xmlns="http://www.w3.org/2000/svg" version="1.1" viewBox="0 -10 80 80">
  <!-- Generator: Adobe Illustrator 28.6.0, SVG Export Plug-In . SVG Version: 1.2.0 Build 709)  -->
  <g>
    <g id="Layer_1">
      <g>
        <path d="M61.2,31.5l-8-7.8c-.6-.6-1.5-.6-2.1,0-.6.6-.6,1.5,0,2.1l5.1,5h-25.1c-.8,0-1.5.7-1.5,1.5s.7,1.5,1.5,1.5h25.5l-5.4,4.9c-.6.6-.7,1.5,0,2.1.3.3.7.5,1.1.5s.7-.1,1-.4l8-7.3c.3-.3.5-.7.5-1.1,0-.4-.2-.8-.4-1.1Z" fill="#49cc90"/>
        <path d="M48.5,49c-.3-.8-1.2-1.1-2-.8-.8.3-1.1,1.2-.8,2l1.4,3.4-4.1,2.4-2.3-2.9c-.6-.7-1.6-1-2.5-.7-1.7.6-3.5.9-5.4,1-1,0-1.8.7-2.1,1.6l-1.1,3.4-4.7-.8v-3.7c0-.9-.5-1.8-1.4-2.2-1.7-.7-3.3-1.6-4.8-2.7-.8-.6-1.8-.6-2.6-.1l-3,1.9-3.1-3.6,2.4-2.8c.6-.7.7-1.7.3-2.6-.8-1.6-1.5-3.3-1.9-5.1-.2-.9-1-1.7-1.9-1.8l-3.6-.5v-4.7c0,0,3.7-.6,3.7-.6.9-.2,1.7-.8,1.9-1.8.4-1.7,1-3.4,1.8-5,.4-.9.3-1.9-.3-2.6l-2.5-2.8,3-3.7,3.4,2c.8.5,1.8.4,2.6-.1,1.4-1,2.9-1.9,4.5-2.6.9-.4,1.4-1.3,1.4-2.2l-.2-3.9,4.6-.9,1.3,3.8c.3.9,1.1,1.5,2,1.5.8,0,1.6.1,2.3.2.9.2,1.9.4,2.8.6.9.3,1.9,0,2.5-.8l2.4-3.1,4.1,2.3-1.4,3.8c-.3.8,0,1.6.9,1.9.8.3,1.6,0,1.9-.9l1.6-4.4c.4-1.1,0-2.3-1-2.8l-5.2-2.9c-1-.6-2.2-.3-2.9.6l-2.5,3.2c-.9-.2-1.8-.4-2.7-.6-.7-.1-1.4-.2-2.2-.2l-1.4-4c-.4-1.1-1.5-1.7-2.6-1.5l-5.8,1.1c-1.1.2-1.9,1.2-1.9,2.4l.2,4c-1.5.7-3,1.5-4.4,2.5l-3.5-2.1c-1-.6-2.2-.4-3,.5l-3.7,4.6c-.7.9-.7,2.2,0,3l2.6,2.9c-.8,1.5-1.4,3.2-1.8,4.8l-3.9.6c-1.1.2-1.9,1.2-1.9,2.3v5.9c0,1.1.9,2.1,2.1,2.2l3.7.5c.4,1.7,1,3.4,1.8,4.9l-2.5,2.9c-.7.9-.7,2.1,0,3l3.9,4.5c.8.9,2,1.1,3,.4l3.1-2c1.4,1.1,3,1.9,4.6,2.7v3.8c0,1.1.8,2.1,1.9,2.3l5.8,1c.1,0,.3,0,.4,0,1,0,1.9-.6,2.2-1.6l1.1-3.5c1.8-.1,3.5-.4,5.2-.9l2.4,3c.7.9,2,1.1,3,.5l5.1-3c1-.6,1.4-1.8,1-2.8l-1.6-4Z" fill="#49cc90"/>
        <path d="M40.5,23.9c.6.6,1.5.7,2.1.1.6-.6.7-1.5.1-2.1-5.6-6.2-15.1-6.6-21.3-1-6.2,5.6-6.6,15.1-1,21.3,3,3.3,7.1,4.9,11.2,4.9,3.6,0,7.2-1.3,10.1-3.9.6-.6.7-1.5.1-2.1-.6-.6-1.5-.7-2.1-.1-2.4,2.2-5.5,3.3-8.7,3.1-3.2-.2-6.2-1.6-8.4-4-4.5-4.9-4.1-12.6.8-17.1,4.9-4.5,12.6-4.1,17.1.8Z" fill="#49cc90"/>
      </g>
    </g>
  </g>
</svg>