<?xml version="1.0" encoding="UTF-8"?>
<svg xmlns="http://www.w3.org/2000/svg" version="1.1" viewBox="0 -10 80 80">
  <!-- Generator: Adobe Illustrator 28.6.0, SVG Export Plug-In . SVG Version: 1.2.0 Build 709)  -->
  <g>
    <g id="Layer_1">
      <g>
        <path d="M21.6,45l5.5-1.9,1.5,4.3c.2.6.8,1,1.4,1s.3,0,.5,0c.8-.3,1.2-1.1.9-1.9l-1.5-4.3,1.7-.6c1.3-.4,2.3-1.3,2.9-2.6.6-1.2.7-2.6.3-3.9l-.6-1.7,4.3-1.5c.8-.3,1.2-1.1.9-1.9-.3-.8-1.1-1.2-1.9-.9l-4.3,1.5-1.9-5.5,4.3-1.5c.8-.3,1.2-1.1.9-1.9s-1.1-1.2-1.9-.9l-4.3,1.5-.6-1.7c-.4-1.3-1.3-2.3-2.6-2.9-1.2-.6-2.6-.7-3.9-.3l-1.7.6-1.5-4.3c-.3-.8-1.1-1.2-1.9-.9-.8.3-1.2,1.1-.9,1.9l1.5,4.3-5.5,1.9-1.5-4.3c-.3-.8-1.1-1.2-1.9-.9-.8.3-1.2,1.1-.9,1.9l1.5,4.3-1.7.6c-2.6.9-4.1,3.8-3.2,6.4l.6,1.7-4.3,1.5c-.8.3-1.2,1.1-.9,1.9.2.6.8,1,1.4,1s.3,0,.5,0l4.3-1.5,1.9,5.5-4.3,1.5c-.8.3-1.2,1.1-.9,1.9.2.6.8,1,1.4,1s.3,0,.5,0l4.3-1.5.6,1.7c.4,1.3,1.3,2.3,2.6,2.9.7.3,1.5.5,2.2.5s1.1,0,1.6-.3l1.7-.6,1.5,4.3c.2.6.8,1,1.4,1s.3,0,.5,0c.8-.3,1.2-1.1.9-1.9l-1.5-4.3ZM20.7,42.1l-1.2-3.6,5.5-1.9,1.2,3.6-5.5,1.9ZM18.5,35.7l-1.9-5.5,5.5-1.9,1.9,5.5-5.5,1.9ZM31.9,36.1c.2.5.1,1.1-.1,1.6-.2.5-.7.9-1.2,1h0l-1.7.6-1.2-3.6,3.6-1.2.6,1.7ZM30.4,31.6l-3.6,1.2-1.9-5.5,3.6-1.2,1.9,5.5ZM24.4,20.3c.2,0,.4-.1.7-.1s.6,0,.9.2c.5.2.9.7,1,1.2l.6,1.7-3.6,1.2-1.2-3.6,1.7-.6ZM19.8,21.9l1.2,3.6-5.5,1.9-1.2-3.6,5.5-1.9ZM8.6,27.9c-.4-1.1.2-2.3,1.3-2.6l1.7-.6,1.2,3.6-3.6,1.2-.6-1.7ZM10.1,32.4l3.6-1.2,1.9,5.5-3.6,1.2-1.9-5.5ZM16.1,43.7c-.5.2-1.1.1-1.6-.1-.5-.2-.9-.7-1-1.2l-.6-1.7,3.6-1.2,1.2,3.6-1.7.6Z" fill="#986ee2"/>
        <path d="M38.2,43.4c-.8.3-1.1,1.2-.8,2,.2.6.8.9,1.4.9s.4,0,.6-.1c2.1-.9,4-2.2,5.5-3.9,2.7-3,4.1-6.9,3.9-11-.2-4.1-2-7.8-5-10.6-3-2.7-6.9-4.1-11-3.9-.8,0-1.5.7-1.4,1.6,0,.8.8,1.5,1.6,1.4,3.3-.2,6.4,1,8.8,3.2,2.4,2.2,3.8,5.2,4,8.5.2,3.3-1,6.4-3.2,8.8-1.2,1.4-2.7,2.4-4.4,3.1Z" fill="#986ee2"/>
        <path d="M61.1,26.9l-4-.6c-.4-1.7-1-3.3-1.8-4.9l2.7-2.9c.8-.9.8-2.1,0-3l-3.8-4.6c-.7-.9-2-1.1-3-.5l-3.6,2.1c-1.4-1-2.9-1.8-4.4-2.5l.2-4.1c0-1.1-.8-2.1-1.9-2.4l-5.9-1.1c-1.1-.2-2.2.4-2.6,1.5l-1.4,4c-.8,0-1.5.1-2.2.3-1.1.2-2.2.4-3.2.7-.8.2-1.2,1.1-1,1.9.2.8,1.1,1.2,1.9,1,.9-.3,1.9-.5,2.8-.7.8-.1,1.5-.2,2.4-.2.9,0,1.7-.7,2.1-1.5l1.4-3.9,4.7.9-.2,4c0,1,.5,1.9,1.4,2.2,1.6.7,3.2,1.6,4.6,2.6.8.6,1.8.6,2.6.1l3.5-2.1,3,3.7-2.6,2.8c-.6.7-.8,1.8-.3,2.6.8,1.6,1.5,3.3,1.9,5.1.2.9,1,1.6,1.9,1.8l3.8.6v4.8c0,0-3.7.5-3.7.5-1,.1-1.7.8-1.9,1.8-.4,1.8-1,3.5-1.9,5.2-.4.8-.3,1.8.3,2.6l2.5,2.9-3.1,3.6-3.1-1.9c-.8-.5-1.9-.5-2.6.1-1.5,1.1-3.1,2.1-4.8,2.8-.9.4-1.4,1.2-1.4,2.2v3.7s-4.7.8-4.7.8l-1.1-3.5c-.3-.9-1.1-1.6-2.1-1.6-1.9,0-3.7-.4-5.4-1-.8-.3-1.6.2-1.9,1s.2,1.6,1,1.9c1.9.6,3.8,1,5.7,1.1l1.2,3.6c.3,1,1.2,1.6,2.2,1.6s.2,0,.4,0l5.9-1c1.1-.2,2-1.2,1.9-2.3v-3.9c1.6-.7,3.2-1.6,4.6-2.7l3.2,2c1,.6,2.2.4,3-.4l3.9-4.5c.8-.9.8-2.1,0-3l-2.6-3c.8-1.6,1.4-3.3,1.8-5l3.8-.5c1.1-.2,2-1.1,2-2.3v-6c0-1.2-.7-2.1-1.9-2.3Z" fill="#986ee2"/>
      </g>
    </g>
  </g>
</svg>