<?xml version="1.0" encoding="UTF-8"?>
<svg xmlns="http://www.w3.org/2000/svg" version="1.1" viewBox="0 -10 80 80">
  <!-- Generator: Adobe Illustrator 28.6.0, SVG Export Plug-In . SVG Version: 1.2.0 Build 709)  -->
  <g>
    <g id="Layer_1">
      <g>
        <path d="M38.5,51.9l-5.3,5.4v-26.3c0-.8-.7-1.5-1.5-1.5s-1.5.7-1.5,1.5v26.7l-5.3-5.7c-.6-.6-1.5-.7-2.1,0-.6.6-.7,1.5,0,2.1l7.6,8.3c.3.3.7.5,1.1.5h0c.4,0,.8-.2,1.1-.4l8.2-8.3c.6-.6.6-1.5,0-2.1-.6-.6-1.5-.6-2.1,0Z" fill="#fca130"/>
        <path d="M32.7,15.9c-4.2-.2-8.2,1.2-11.3,4-6.4,5.8-6.9,15.7-1.1,22.1.6.6,1.5.7,2.1.1.6-.6.7-1.5.1-2.1-4.7-5.2-4.3-13.2.9-17.9,2.5-2.3,5.7-3.4,9.1-3.3,3.4.2,6.5,1.6,8.8,4.1,4.7,5.2,4.3,13.2-.9,17.9-.6.6-.7,1.5-.1,2.1.3.3.7.5,1.1.5s.7-.1,1-.4c3.1-2.8,4.9-6.7,5.1-10.8.2-4.2-1.2-8.2-4-11.3s-6.7-4.9-10.8-5.1Z" fill="#fca130"/>
        <path d="M62.6,29.3l-1.2-6.1c-.2-1.1-1.2-1.9-2.4-1.9l-4.2.2c-.7-1.6-1.6-3.2-2.6-4.6l2.2-3.7c.6-1,.4-2.3-.5-3l-4.8-3.9c-.9-.7-2.2-.7-3,0l-3,2.8c-1.6-.8-3.3-1.4-5.1-1.9l-.7-4.1c-.2-1.1-1.2-2-2.3-2h-6.2c-1.2,0-2.1.9-2.3,2.1l-.5,3.9c-1.8.4-3.5,1.1-5.2,1.9l-3.1-2.7c-.9-.8-2.2-.8-3,0l-4.7,4c-.9.8-1.1,2-.5,3l2.1,3.3c-1.1,1.5-2.1,3.1-2.8,4.9h-4c0,0,0,0,0,0-1.1,0-2.1.8-2.3,2l-1,6.1c-.2,1.1.5,2.2,1.6,2.6l3.7,1.2c.1,1.9.5,3.7,1,5.5l-3.1,2.6c-.9.7-1.1,2-.5,3l3.2,5.3c.4.7,1.2,1.1,2,1.1s.6,0,.9-.2l4.1-1.7c.8-.3,1.1-1.2.8-2-.3-.8-1.2-1.1-2-.8l-3.6,1.5-2.6-4.3,3-2.5c.7-.6,1-1.6.7-2.5-.6-1.8-.9-3.7-1-5.6,0-1-.7-1.8-1.6-2.1l-3.6-1.2.8-5h3.9c1,0,1.8-.5,2.2-1.4.7-1.8,1.7-3.4,2.9-5,.6-.8.6-1.8.1-2.7l-2-3.2,3.8-3.3,3,2.6c.7.6,1.7.7,2.6.3,1.7-.9,3.5-1.5,5.3-1.9.9-.2,1.7-1,1.8-2l.5-3.8h5c0,0,.7,3.9.7,3.9.2.9.9,1.7,1.8,1.9,1.8.4,3.6,1.1,5.2,1.9.9.4,1.9.3,2.6-.3l2.9-2.7,3.9,3.2-2.1,3.6c-.5.8-.4,1.8.1,2.6,1.1,1.5,2,3,2.7,4.7.4.9,1.3,1.5,2.2,1.4l4.1-.2.9,4.9-4,1.4c-.9.3-1.5,1.1-1.6,2.1,0,.8-.1,1.6-.3,2.4-.2,1-.4,2-.7,2.9-.3.9,0,1.9.8,2.5l3.3,2.6-2.5,4.4-4-1.5c-.8-.3-1.6,0-1.9.9-.3.8,0,1.6.9,1.9l4.5,1.7c1.1.4,2.3,0,2.9-1l3-5.4c.6-1,.3-2.3-.6-3l-3.4-2.6c.3-.9.5-1.9.6-2.8.1-.7.2-1.5.3-2.3l4.2-1.5c1.1-.4,1.7-1.5,1.5-2.6Z" fill="#fca130"/>
      </g>
    </g>
  </g>
</svg>