<?xml version="1.0" encoding="utf-8"?>
<!-- Generator: Adobe Illustrator 28.2.0, SVG Export Plug-In . SVG Version: 6.00 Build 0)  -->
<svg version="1.1" id="Layer_1" xmlns="http://www.w3.org/2000/svg" xmlns:xlink="http://www.w3.org/1999/xlink" x="0px" y="0px"
	 viewBox="0 0 64 64" style="enable-background:new 0 0 64 64;" xml:space="preserve">
<style type="text/css">
	.st0{fill:white;}
</style>
<g>
	<path class="st0" d="M54.5,46.2l-2.5,4.5l-3.8-9.2l-2.6,5.9l-5.8,0c0.8,4,4.3,7,8.5,7c4.6,0,8.3-3.6,8.6-8.1L54.5,46.2z"/>
	<path class="st0" d="M48.3,38.3l3.9,9.5l1.6-2.8l3.1,0c-0.3-4.5-4.1-8-8.6-8c-4.8,0-8.6,3.9-8.6,8.7c0,0.1,0,0.3,0,0.4l5.1,0
		L48.3,38.3z"/>
	<path class="st0" d="M56.5,33.8c0.1-0.7,0.2-1.4,0.2-2.2C56.7,16.4,44.3,4,29,4S1.3,16.4,1.3,31.7S13.7,59.3,29,59.3
		c3.8,0,7.4-0.8,10.7-2.2c2.4,1.8,5.4,2.9,8.6,2.9c8,0,14.4-6.5,14.4-14.4C62.7,40.7,60.3,36.4,56.5,33.8z M54.5,32.7h0.2
		c0,0,0,0.1,0,0.1C54.6,32.7,54.5,32.7,54.5,32.7z M7.8,46.2h12.8c0.5,2.1,2.4,3.7,4.6,3.7c2.6,0,4.7-2.1,4.7-4.7
		c0-2.6-2.1-4.7-4.7-4.7c-2.3,0-4.2,1.6-4.6,3.7h-14c-2.1-3.7-3.3-8-3.3-12.6c0-4.4,1.1-8.6,3.1-12.2H33c0.5,2.1,2.4,3.7,4.6,3.7
		c2.6,0,4.7-2.1,4.7-4.7c0-2.6-2.1-4.7-4.7-4.7c-2.3,0-4.2,1.6-4.6,3.7H7.6C12.2,10.5,20.1,6,29,6c13.8,0,25.1,11,25.6,24.7H21.1
		c-0.5-2.1-2.4-3.7-4.6-3.7c-2.6,0-4.7,2.1-4.7,4.7c0,2.6,2.1,4.7,4.7,4.7c2.3,0,4.2-1.6,4.6-3.7h21.1c-4.9,2.3-8.3,7.2-8.3,13
		c0,3.9,1.6,7.4,4.1,10c-2.8,1.1-5.8,1.7-9,1.7C20.2,57.3,12.5,52.9,7.8,46.2z M22.5,45.2c0-1.5,1.2-2.7,2.7-2.7
		c1.5,0,2.7,1.2,2.7,2.7c0,1.5-1.2,2.7-2.7,2.7C23.7,48,22.5,46.7,22.5,45.2z M34.9,18.4c0-1.5,1.2-2.7,2.7-2.7
		c1.5,0,2.7,1.2,2.7,2.7c0,1.5-1.2,2.7-2.7,2.7C36.1,21.2,34.9,19.9,34.9,18.4z M19.2,31.7c0,1.5-1.2,2.7-2.7,2.7s-2.7-1.2-2.7-2.7
		c0-1.5,1.2-2.7,2.7-2.7S19.2,30.1,19.2,31.7z M48.3,56.4c-5.9,0-10.7-4.8-10.7-10.7c0-5.9,4.8-10.7,10.7-10.7
		c5.9,0,10.7,4.8,10.7,10.7C59.1,51.6,54.2,56.4,48.3,56.4z"/>
</g>
</svg>
