<?xml version="1.0" encoding="utf-8"?>
<!-- Generator: Adobe Illustrator 28.2.0, SVG Export Plug-In . SVG Version: 6.00 Build 0)  -->
<svg version="1.1" id="Layer_1" xmlns="http://www.w3.org/2000/svg" xmlns:xlink="http://www.w3.org/1999/xlink" x="0px" y="0px"
	 viewBox="0 0 64 64" style="enable-background:new 0 0 64 64;" xml:space="preserve">
<style type="text/css">
	.st0{fill:white;}
</style>
<path class="st0" d="M59.5,27.3l-3.6-0.6c-0.4-1.9-1.1-3.8-2-5.6l2.4-2.6c0.9-0.9,0.9-2.4,0.1-3.4l-3.2-4c-0.8-1-2.2-1.3-3.3-0.6
	l-3.2,1.9c-1.6-1.2-3.3-2.2-5.1-3l0.2-3.6c0.1-1.3-0.8-2.4-2.1-2.7l-5-1c-1.3-0.2-2.5,0.5-2.9,1.7l-1.3,3.6c-1.9,0.1-3.8,0.4-5.7,1
	l-2.3-3c-0.8-1-2.2-1.3-3.3-0.7l-4.5,2.4c-1.1,0.6-1.6,2-1.2,3.2L15,14c-1.4,1.3-2.6,2.7-3.6,4.3l-3.8-0.9c-1.2-0.3-2.5,0.4-3,1.6
	l-1.8,4.7c-0.5,1.2,0,2.5,1.1,3.2l3.5,2c-0.1,0.8-0.2,1.7-0.2,2.5c0,0.1,0,0.2,0,0.4c0,0,0,0,0,0c0,0,0,0,0,0c0,0.9,0,1.8,0.1,2.7
	l-3.5,1.8c-1.1,0.6-1.7,1.9-1.3,3.1l1.6,4.8c0.4,1.2,1.7,1.9,2.9,1.7l4-0.7c1,1.6,2.2,3,3.5,4.3l-1.5,3.6c-0.5,1.2-0.1,2.5,1,3.2
	l4.3,2.6c1.1,0.7,2.5,0.4,3.3-0.6l2.5-3.1c1.8,0.6,3.7,0.9,5.6,1.1l1.1,3.6c0.3,1.1,1.3,1.8,2.5,1.8c0.1,0,0.3,0,0.4,0l5-0.8
	c1.3-0.2,2.2-1.3,2.2-2.6l0-3.8c1.8-0.7,3.5-1.7,5.1-2.8l3.1,2c1.1,0.7,2.5,0.5,3.3-0.5l3.4-3.8c0.8-1,0.9-2.4,0-3.4l-2.4-2.8
	c0.9-1.7,1.6-3.6,2.1-5.5l3.6-0.5c1.3-0.2,2.2-1.2,2.3-2.5l0.1-5.1C61.6,28.6,60.7,27.5,59.5,27.3z M59.2,34.9
	c0,0.1-0.1,0.3-0.2,0.3l-4.3,0.6c-0.5,0.1-0.9,0.4-1,0.9c-0.3,1.6-0.8,3.1-1.5,4.5h-22c-0.5-2-2.3-3.5-4.5-3.5
	c-2.6,0-4.7,2.1-4.7,4.7s2.1,4.7,4.7,4.7c2.2,0,4-1.5,4.5-3.5h20.9c0,0.3,0.1,0.6,0.3,0.8l2.9,3.4c0.1,0.1,0.1,0.3,0,0.4L50.9,52
	c-0.1,0.1-0.2,0.1-0.4,0.1l-3.8-2.4c-0.4-0.3-0.9-0.2-1.3,0.1c-1.8,1.4-3.8,2.5-5.9,3.3c-0.5,0.2-0.8,0.6-0.8,1.1l0,4.6
	c0,0.1-0.1,0.3-0.2,0.3l-5,0.8c-0.1,0-0.3-0.1-0.3-0.2l-1.4-4.4c-0.1-0.5-0.6-0.8-1.1-0.8c-2.2-0.1-4.4-0.5-6.5-1.3
	c-0.1,0-0.3-0.1-0.4-0.1c-0.3,0-0.7,0.1-0.9,0.4L20,57c-0.1,0.1-0.2,0.1-0.4,0.1l-4.3-2.6c-0.1-0.1-0.2-0.2-0.1-0.3l1.8-4.4
	c0.2-0.4,0.1-1-0.3-1.3c-1.6-1.5-3-3.2-4.1-5c-0.2-0.4-0.7-0.6-1.2-0.5l-4.8,0.9c-0.1,0-0.3-0.1-0.3-0.2l-1.6-4.8
	c0-0.1,0-0.3,0.1-0.3l4.2-2.2C9.5,36,9.7,35.5,9.7,35c-0.1-0.7-0.1-1.3-0.2-2h26.8c0.5,2,2.3,3.5,4.5,3.5c2.6,0,4.7-2.1,4.7-4.7
	c0-2.6-2.1-4.7-4.7-4.7c-2.2,0-4,1.5-4.5,3.5H9.5c0-0.7,0.1-1.4,0.2-2.2c0.1-0.5-0.2-0.9-0.6-1.2L5,24.9c-0.1-0.1-0.2-0.2-0.1-0.3
	l1.8-4.7c0-0.1,0.2-0.2,0.3-0.2l4.6,1c0.5,0.1,1-0.1,1.2-0.5c1.2-1.9,2.6-3.6,4.2-5c0.4-0.3,0.5-0.8,0.3-1.3l-1.6-4.5
	c0-0.1,0-0.3,0.1-0.3l4.5-2.4c0.1-0.1,0.3,0,0.4,0.1l2.8,3.6c0.3,0.4,0.8,0.6,1.3,0.4c2.1-0.7,4.3-1.1,6.6-1.1
	c0.5,0,0.9-0.3,1.1-0.8L34,4.5c0-0.1,0.2-0.2,0.3-0.2l5,1c0.1,0,0.2,0.2,0.2,0.3l-0.2,4.4c0,0.5,0.3,0.9,0.7,1.1
	c2.1,0.8,4.1,2,5.9,3.4c0.4,0.3,0.9,0.3,1.3,0.1l3.9-2.3c0.1-0.1,0.3,0,0.4,0.1l3.2,4c0.1,0.1,0.1,0.3,0,0.4l-3,3.2
	c-0.1,0.1-0.1,0.2-0.2,0.2H30.2c-0.5-2-2.3-3.5-4.5-3.5c-2.6,0-4.7,2.1-4.7,4.7s2.1,4.7,4.7,4.7c2.2,0,4-1.5,4.5-3.5h21.8
	c0.8,1.7,1.3,3.4,1.7,5.2c0.1,0.5,0.5,0.8,0.9,0.9l4.4,0.8c0.1,0,0.2,0.1,0.2,0.3L59.2,34.9z M28,42.3c0,1.3-1.1,2.4-2.4,2.4
	s-2.4-1.1-2.4-2.4s1.1-2.4,2.4-2.4S28,41,28,42.3z M38.4,31.8c0-1.3,1.1-2.4,2.4-2.4s2.4,1.1,2.4,2.4c0,1.3-1.1,2.4-2.4,2.4
	S38.4,33.1,38.4,31.8z M28.1,21.5c0,1.3-1.1,2.4-2.4,2.4s-2.4-1.1-2.4-2.4s1.1-2.4,2.4-2.4S28.1,20.2,28.1,21.5z"/>
</svg>
