<?xml version="1.0" encoding="UTF-8"?>
<svg xmlns="http://www.w3.org/2000/svg" version="1.1" viewBox="0 -10 80 80">
  <!-- Generator: Adobe Illustrator 28.6.0, SVG Export Plug-In . SVG Version: 1.2.0 Build 709)  -->
  <g>
    <g id="Layer_1">
      <g>
        <path d="M54.4,1.7H9.6C4.9,1.7,1.2,5.4,1.2,10v30c0,.8.7,1.5,1.5,1.5h3.5l.5,2.4c.2,1.1,1.2,1.8,2.3,1.8l3.4-.2c.7,1.3,1.4,2.6,2.3,3.8l-1.6,2.9c-.5,1-.3,2.2.5,2.8l4.2,3.3c.9.7,2.1.6,2.9-.1l2.4-2.3c1.4.6,2.8,1.1,4.3,1.4l.6,3.2c.2,1.1,1.1,1.8,2.2,1.8s0,0,0,0h5.3c1.1-.2,2-1,2.1-2.1l.4-3.3c1.5-.4,2.9-1,4.2-1.7l2.5,2c.9.7,2.1.7,2.9,0l4-3.5c.8-.7,1-2,.4-2.9l-1.8-2.8c.8-1.3,1.5-2.6,2.1-4h3.3c1.1,0,2-.8,2.2-1.9l.8-5.2c.2-1.1-.5-2.1-1.5-2.4l-3.3-1c0-.3-.1-.6-.2-1h2.1c4,0,7.2-3.2,7.2-7.2v-15.2c0-4.6-3.8-8.4-8.4-8.4ZM55.4,37.1l-.6,3.9h-3.1c-.9,0-1.8.6-2.1,1.5-.6,1.5-1.3,2.9-2.2,4.3-.5.7-.5,1.7,0,2.5l1.7,2.7-3,2.6-2.3-2c-.7-.6-1.7-.7-2.5-.2-1.4.8-2.9,1.4-4.5,1.8-.9.2-1.5,1-1.6,1.9l-.4,3.1h-3.9c0,.1-.5-2.9-.5-2.9-.2-.9-.9-1.6-1.8-1.8-1.6-.3-3.1-.8-4.6-1.5-.3-.1-.6-.2-1-.2-.5,0-1.1.2-1.5.6l-2.3,2.2-3.1-2.5,1.6-2.7c.5-.8.4-1.8-.2-2.5-1-1.2-1.8-2.6-2.5-4.1-.4-.8-1.2-1.3-2.1-1.3l-3.3.2-.8-3.9,3.1-1.1c.9-.3,1.4-1.1,1.5-2,0-1.6.2-3.1.7-4.6.2-.9,0-1.8-.8-2.4l-2.7-2,1.9-3.5,3.2,1.1c.9.3,1.8,0,2.4-.6,1-1.2,2.2-2.2,3.4-3.1.7-.5,1.1-1.4.9-2.3l-.8-3.4,3.7-1.4,1.7,2.9c.5.8,1.4,1.2,2.3,1.1.8-.1,1.7-.2,2.5-.2.7,0,1.4,0,2.1,0,.9,0,1.7-.4,2.2-1.2l1.6-3.1,3.7,1.2-.6,3.3c-.2.9.3,1.8,1.1,2.3,1.3.8,2.6,1.7,3.7,2.8.6.6,1.6.8,2.4.5l3.1-1.3,2.1,3.4-2.5,2.1c-.7.6-1,1.6-.7,2.4.5,1.5.9,3,1,4.6,0,.9.7,1.7,1.6,1.9l3.2,1ZM59.8,25.3c0,2.3-1.9,4.2-4.2,4.2h-2.6c0,0-.1,0-.2,0,0-.1,0-.3-.1-.4l2.6-2.2c.8-.7,1-1.9.5-2.9l-2.8-4.5c-.6-.9-1.7-1.3-2.8-.9l-3.3,1.4c-1-1-2.2-1.9-3.4-2.6l.6-3.4c.2-1.1-.4-2.1-1.5-2.5l-5-1.7c-1-.3-2.2.1-2.7,1.1l-1.7,3.2c-.6,0-1.3,0-1.9,0-.8,0-1.6,0-2.4.2l-1.8-3.1c-.6-1-1.7-1.4-2.7-.9l-4.9,1.9c-1,.4-1.6,1.5-1.3,2.6l.8,3.5c-1.1.8-2.2,1.8-3.2,2.9l-3.3-1.2c-1-.4-2.2,0-2.7,1l-2.5,4.7c-.5,1-.3,2.2.6,2.8l2.8,2.1c-.3,1.4-.6,2.8-.6,4.3l-3.2,1.2c-1,.4-1.5,1.3-1.4,2.3h-1.4V10c0-3,2.4-5.4,5.4-5.4h44.9c3,0,5.4,2.4,5.4,5.4v15.2Z" fill="#9012fe"/>
        <path d="M33.3,21.9c-3.7-.3-7.4.8-10.3,3.3-2.9,2.4-4.6,5.8-4.9,9.6-.3,3.7.8,7.4,3.3,10.3,2.8,3.3,6.8,5,10.8,5s6.4-1.1,9.1-3.3c5.9-5,6.7-13.9,1.7-19.8-2.4-2.9-5.8-4.6-9.6-4.9ZM39.2,44.4c-4.7,3.9-11.7,3.3-15.6-1.3-1.9-2.3-2.8-5.1-2.6-8.1.2-2.9,1.6-5.6,3.9-7.5,2-1.7,4.5-2.6,7.1-2.6s.6,0,.9,0c2.9.2,5.6,1.6,7.5,3.9,3.9,4.7,3.3,11.7-1.3,15.6Z" fill="#9012fe"/>
      </g>
    </g>
  </g>
</svg>