<?xml version="1.0" encoding="UTF-8"?>
<svg xmlns="http://www.w3.org/2000/svg" version="1.1" viewBox="0 -10 80 80">
  <!-- Generator: Adobe Illustrator 28.6.0, SVG Export Plug-In . SVG Version: 1.2.0 Build 709)  -->
  <g>
    <g id="Layer_1">
      <g>
        <path d="M60.2,26.8l-4.1-.7c-.4-1.7-1.1-3.4-1.9-5l2.7-3c.8-.9.8-2.1,0-3l-3.9-4.8c-.7-.9-2-1.1-3-.5l-3.7,2.2c-1.4-1-3-1.9-4.6-2.6l.2-4.2c0-1.2-.8-2.2-1.9-2.4l-6-1.1c-1.1-.2-2.2.4-2.6,1.5l-1.4,4.1c-.8,0-1.5.1-2.3.3-1,.2-1.9.4-2.8.6l-2.6-3.4c-.7-.9-2-1.2-3-.6l-5.4,3c-1,.6-1.4,1.8-1,2.9l1.7,4.5c.3.8,1.2,1.2,1.9.9.8-.3,1.2-1.2.9-1.9l-1.5-4,4.3-2.4,2.5,3.3c.6.8,1.6,1.1,2.5.8.9-.3,1.9-.5,2.9-.7.8-.1,1.6-.2,2.4-.3.9,0,1.8-.7,2.1-1.6l1.4-4,4.9.9-.2,4.1c0,1,.5,1.9,1.4,2.2,1.7.7,3.3,1.6,4.7,2.7.8.6,1.8.6,2.6.1l3.6-2.1,3.2,3.9-2.7,2.9c-.7.7-.8,1.8-.3,2.6.9,1.6,1.5,3.4,1.9,5.2.2.9,1,1.6,1.9,1.8l4,.6v5c0,0-3.8.5-3.8.5-1,.1-1.7.9-2,1.8-.4,1.8-1.1,3.6-1.9,5.3-.4.8-.3,1.9.3,2.6l2.5,3-3.3,3.8-3.2-2c-.8-.5-1.9-.5-2.7.1-1.5,1.2-3.2,2.1-4.9,2.8-.9.4-1.5,1.2-1.4,2.2v3.8s-4.9.8-4.9.8l-1.1-3.6c-.3-.9-1.1-1.6-2.1-1.6-1.9,0-3.8-.4-5.6-1-.9-.3-1.9,0-2.5.7l-2.5,3-4.3-2.5,1.5-3.6c.3-.8,0-1.6-.8-2-.8-.3-1.6,0-2,.8l-1.7,4.1c-.4,1.1,0,2.3,1,2.9l5.3,3.1c1,.6,2.3.4,3-.5l2.5-3.1c1.8.5,3.6.9,5.4,1l1.2,3.7c.3,1,1.2,1.6,2.2,1.6s.2,0,.4,0l6.1-1c1.1-.2,2-1.2,2-2.3v-4c1.6-.7,3.3-1.7,4.8-2.8l3.3,2.1c1,.6,2.2.4,3-.5l4-4.7c.7-.9.7-2.2,0-3l-2.6-3.1c.8-1.7,1.4-3.4,1.9-5.2l3.9-.5c1.1-.2,2-1.1,2-2.3v-6.1c0-1.1-.7-2.1-1.9-2.3Z" fill="#0d5aa7"/>
        <path d="M18.6,24.2h23.8c.8,0,1.5-.7,1.5-1.5s-.7-1.5-1.5-1.5h-23.8c-.8,0-1.5.7-1.5,1.5s.7,1.5,1.5,1.5Z" fill="#0d5aa7"/>
        <path d="M18.6,42.4h23.8c.8,0,1.5-.7,1.5-1.5s-.7-1.5-1.5-1.5h-23.8c-.8,0-1.5.7-1.5,1.5s.7,1.5,1.5,1.5Z" fill="#0d5aa7"/>
        <path d="M18.6,33.3h23.8c.8,0,1.5-.7,1.5-1.5s-.7-1.5-1.5-1.5h-23.8c-.8,0-1.5.7-1.5,1.5s.7,1.5,1.5,1.5Z" fill="#0d5aa7"/>
        <path d="M5.4,19.1c-2,0-3.6,1.6-3.6,3.6s1.6,3.6,3.6,3.6,3.6-1.6,3.6-3.6-1.6-3.6-3.6-3.6ZM5.4,23.3c-.3,0-.6-.3-.6-.6s.3-.6.6-.6.6.3.6.6-.3.6-.6.6Z" fill="#0d5aa7"/>
        <path d="M5.4,28.3c-2,0-3.6,1.6-3.6,3.6s1.6,3.6,3.6,3.6,3.6-1.6,3.6-3.6-1.6-3.6-3.6-3.6ZM5.4,32.4c-.3,0-.6-.3-.6-.6s.3-.6.6-.6.6.3.6.6-.3.6-.6.6Z" fill="#0d5aa7"/>
        <path d="M5.4,37.4c-2,0-3.6,1.6-3.6,3.6s1.6,3.6,3.6,3.6,3.6-1.6,3.6-3.6-1.6-3.6-3.6-3.6ZM5.4,41.5c-.3,0-.6-.3-.6-.6s.3-.6.6-.6.6.3.6.6-.3.6-.6.6Z" fill="#0d5aa7"/>
      </g>
    </g>
  </g>
</svg>