<?xml version="1.0" encoding="UTF-8"?>
<svg xmlns="http://www.w3.org/2000/svg" version="1.1" viewBox="0 -10 80 80">
  <!-- Generator: Adobe Illustrator 28.6.0, SVG Export Plug-In . SVG Version: 1.2.0 Build 709)  -->
  <g>
    <g id="Layer_1">
      <g>
        <path d="M7.2,33.8h25.7c.8,0,1.5-.7,1.5-1.5s-.7-1.5-1.5-1.5H7.6l5.1-5c.6-.6.6-1.5,0-2.1-.6-.6-1.5-.6-2.1,0l-8,7.9c-.3.3-.5.7-.4,1.1,0,.4.2.8.5,1.1l8,7.3c.3.3.7.4,1,.4s.8-.2,1.1-.5c.6-.6.5-1.6,0-2.1l-5.5-5Z" fill="#3d7eff"/>
        <path d="M24.3,41.1c-.6-.6-1.6-.5-2.1.1-.6.6-.5,1.6.1,2.1,2.9,2.6,6.5,3.9,10.2,3.9s8.3-1.7,11.3-5c5.6-6.2,5.1-15.8-1.1-21.4-6.2-5.6-15.8-5.1-21.4,1.1-.6.6-.5,1.6.1,2.1.6.6,1.6.5,2.1-.1,4.5-5,12.2-5.4,17.2-.8,5,4.5,5.4,12.2.8,17.2-4.5,5-12.2,5.4-17.2.8Z" fill="#3d7eff"/>
        <path d="M59.9,26.9l-4-.6c-.4-1.7-1-3.3-1.8-4.9l2.6-2.9c.8-.9.8-2.1,0-3l-3.8-4.6c-.7-.9-2-1.1-3-.5l-3.6,2.1c-1.4-1-2.8-1.8-4.4-2.5l.2-4c0-1.1-.8-2.1-1.9-2.4l-5.9-1.1c-1.1-.2-2.2.4-2.6,1.5l-1.4,4c-.8,0-1.5.1-2.2.3-.9.2-1.8.4-2.7.6l-2.5-3.2c-.7-.9-1.9-1.2-2.9-.6l-5.2,2.9c-1,.6-1.4,1.8-1,2.8l1.7,4.4c.3.8,1.2,1.2,1.9.9.8-.3,1.2-1.2.9-1.9l-1.4-3.8,4.2-2.3,2.4,3.1c.6.7,1.6,1.1,2.5.8.9-.3,1.8-.5,2.8-.6.8-.1,1.5-.2,2.3-.2.9,0,1.7-.7,2.1-1.5l1.4-3.9,4.7.9-.2,3.9c0,1,.5,1.8,1.4,2.2,1.6.7,3.2,1.6,4.6,2.6.8.6,1.8.6,2.6.1l3.4-2,3,3.7-2.6,2.8c-.6.7-.8,1.8-.3,2.6.8,1.6,1.5,3.3,1.9,5,.2.9,1,1.6,1.9,1.8l3.8.6v4.8c0,0-3.7.5-3.7.5-1,.1-1.7.8-1.9,1.8-.4,1.8-1,3.5-1.9,5.1-.4.8-.3,1.8.3,2.6l2.5,2.8-3.1,3.6-3-1.9c-.8-.5-1.9-.5-2.6.1-1.5,1.1-3.1,2.1-4.8,2.8-.9.4-1.4,1.2-1.4,2.2v3.7s-4.7.8-4.7.8l-1.1-3.4c-.3-.9-1.1-1.5-2.1-1.6-1.8,0-3.7-.4-5.4-1-.9-.3-1.9,0-2.5.7l-2.4,2.9-4.1-2.4,1.4-3.4c.3-.8,0-1.6-.8-2-.8-.3-1.6,0-2,.8l-1.6,4c-.4,1,0,2.3,1,2.9l5.1,3.1c1,.6,2.2.4,3-.5l2.5-3c1.7.5,3.5.8,5.3,1l1.1,3.6c.3,1,1.2,1.6,2.2,1.6s.2,0,.4,0l5.9-1c1.1-.2,1.9-1.2,1.9-2.3v-3.8c1.6-.7,3.1-1.6,4.6-2.7l3.2,2c1,.6,2.2.4,3-.4l3.9-4.5c.7-.9.7-2.2,0-3l-2.5-2.9c.8-1.6,1.4-3.3,1.8-5l3.8-.5c1.1-.2,2-1.1,2-2.3v-6c0-1.2-.7-2.1-1.9-2.3Z" fill="#3d7eff"/>
      </g>
    </g>
  </g>
</svg>