<!--
 ~   Copyright (c) 2024, WSO2 LLC. (https://www.wso2.com). All Rights Reserved.
 ~   
 ~   This software is the property of WSO2 LLC. and its suppliers, if any.
 ~   Dissemination of any information or reproduction of any material contained
 ~   herein in any form is strictly forbidden, unless permitted by WSO2 expressly.
 ~   You may not alter or remove any copyright or other notice from copies of this content.
-->
<svg xmlns="http://www.w3.org/2000/svg" width="24" height="24" viewBox="0 0 24 24">
	<path fill="white" d="M23.035 9.601h-7.677a.956.956 0 0 1-.962-.962V.962a.956.956 0 0 0-.962-.956H10.56a.956.956 0 0 0-.962.956V8.64a.956.956 0 0 1-.962.962H5.762a.956.956 0 0 1-.961-.962V.962A.956.956 0 0 0 3.839 0H.959a.956.956 0 0 0-.956.962v22.076A.956.956 0 0 0 .965 24h22.07a.956.956 0 0 0 .962-.962V10.58a.956.956 0 0 0-.962-.98zm-3.86 8.152a1.437 1.437 0 0 1-1.437 1.443h-1.924a1.437 1.437 0 0 1-1.436-1.443v-1.917a1.437 1.437 0 0 1 1.436-1.443h1.924a1.437 1.437 0 0 1 1.437 1.443z" />
</svg>
