<!--
 ~   Copyright (c) 2025, WSO2 LLC. (https://www.wso2.com). All Rights Reserved.
 ~   
 ~   This software is the property of WSO2 LLC. and its suppliers, if any.
 ~   Dissemination of any information or reproduction of any material contained
 ~   herein in any form is strictly forbidden, unless permitted by WSO2 expressly.
 ~   You may not alter or remove any copyright or other notice from copies of this content.
-->
<svg xmlns="http://www.w3.org/2000/svg" width="32" height="32" viewBox="0 0 32 32"><path fill="white" d="M16 28h14v2H16zm11-2h-8c-1.103 0-2-.897-2-2v-5c0-1.103.897-2 2-2h8c1.103 0 2 .897 2 2v5c0 1.103-.897 2-2 2m-8-7v5h8v-5zm-4 4h-5c-1.103 0-2-.897-2-2v-4h2v4h5zM2 13h14v2H2zm11-2H5c-1.103 0-2-.897-2-2V4c0-1.103.897-2 2-2h8c1.103 0 2 .897 2 2v5c0 1.103-.897 2-2 2M5 4v5h8V4z"/></svg>