<?xml version="1.0" encoding="UTF-8"?>
<svg xmlns="http://www.w3.org/2000/svg" viewBox="0 0 1441.07 1381.55" width="300" height="300">
  <g fill="#000" id="Layer_2" data-name="Layer 2">
    <g>
    <path d="M10,20 V380 H160 C230,380 280,350 305,310 C330,270 320,225 270,205 C330,185 350,140 335,95 C320,50 270,20 210,20 Z M90,80 H190 C225,80 250,100 250,135 C250,170 225,190 190,190 H90 Z M90,230 H190 C230,230 260,255 260,295 C260,335 230,360 190,360 H90 Z" transform="translate(110, 1010)" />
    <path d="M20,20 V380 H150 C210,380 250,350 270,310 C290,270 270,230 230,210 C280,190 300,150 290,110 C280,70 240,20 190,20 Z M80,80 H170 C200,80 220,100 220,130 C220,160 200,180 170,180 H80 Z M80,230 H170 C205,230 230,255 230,290 C230,325 205,350 170,350 H80 Z" transform="translate(110, 1010)" />
    <path d="M494.17,1356.82v-323.54c0-10.79,8.74-19.53,19.53-19.53h83.18c10.79,0,19.53,8.74,19.53,19.53v323.54c0,10.79-8.74,19.53-19.53,19.53h-83.18c-10.79,0-19.53-8.74-19.53-19.53Z"/>
    </g>
  </g>
  <g fill="#000" id="Layer_1" data-name="Layer 1">
    <path d="M1303,646.94l-201.64,.48-100.54,180.9L749.98,216.81l-225.68,502.34-331.67-.71c1.34,27.67,4.69,54.8,9.83,81.28l374.34,.8,169.77-377.86,243.2,592.85,159.46-286.92,154.26-.37c.8-12.39,1.36-24.86,1.36-37.44-.03-14.77-.74-29.35-1.85-43.83Z"/>
    <path d="M748.39,0C365.84,0,55.71,309.28,55.71,690.78c0,144.66,44.6,278.93,120.83,389.89,13.3-50.87,40.44-96.26,77.21-132.06-39.49-77.23-61.79-164.9-61.79-257.83,0-310.62,249.14-562.4,556.43-562.4s556.43,251.78,556.43,562.4-249.11,562.4-556.43,562.4c-6.15,0-12.27-.11-18.37-.31-18.06,47.49-48.54,88.99-87.55,120.66,34.53,5.28,69.91,8.03,105.92,8.03,382.55,0,692.68-309.28,692.68-690.78S1130.93,0,748.39,0Z"/>
  </g>
</svg>