<!--
 ~   Copyright (c) 2025, WSO2 LLC. (https://www.wso2.com). All Rights Reserved.
 ~   
 ~   This software is the property of WSO2 LLC. and its suppliers, if any.
 ~   Dissemination of any information or reproduction of any material contained
 ~   herein in any form is strictly forbidden, unless permitted by WSO2 expressly.
 ~   You may not alter or remove any copyright or other notice from copies of this content.
-->

<svg xmlns="http://www.w3.org/2000/svg" x="0px" y="0px" width="100" height="100" viewBox="0 0 48 48">
<path fill="black" d="M42 13h-2V8H8v5H6V8c0-1.1.9-2 2-2h32c1.1 0 2 .9 2 2V13zM40 42H8c-1.1 0-2-.9-2-2v-5h2v5h32v-5h2v5C42 41.1 41.1 42 40 42z"></path><path fill="black" d="M36,33H12c-0.6,0-1-0.4-1-1V16c0-0.6,0.4-1,1-1h24c0.6,0,1,0.4,1,1v16C37,32.6,36.6,33,36,33z"></path><path fill="white" d="M37,17.2l-11.8,8.5c-0.7,0.5-1.6,0.5-2.3,0L11,17.2v2.5l10.7,7.6c0.7,0.5,1.5,0.7,2.3,0.7 s1.6-0.2,2.3-0.7L37,19.6V17.2z"></path>
</svg>