<svg width="50" height="50" viewBox="0 0 50 50" fill="none" xmlns="http://www.w3.org/2000/svg">
<path d="M45.3125 3.125H4.6875L3.125 4.6875V45.3125L4.6875 46.875H45.3125L46.875 45.3125V4.6875L45.3125 3.125ZM43.75 43.75H15.625V37.5H22.8125C23.75 39.375 25.9375 40.625 28.125 40.625C31.5625 40.625 34.375 37.8125 34.375 34.375C34.375 30.9375 31.5625 28.125 28.125 28.125C24.6875 28.125 21.875 30.9375 21.875 34.375H12.5V43.75H6.25V6.25H12.5V13.4375C10.625 14.375 9.375 16.5625 9.375 18.75C9.375 22.1875 12.1875 25 15.625 25C19.0625 25 21.875 22.1875 21.875 18.75H28.125C28.125 22.1875 30.9375 25 34.375 25C37.8125 25 40.625 22.1875 40.625 18.75C40.625 15.3125 37.8125 12.5 34.375 12.5C32.1875 12.5 30 13.75 29.0625 15.625H20.9375C20 13.75 17.8125 12.5 15.625 12.5V6.25H43.75V43.75ZM25 34.375C25 32.5 26.25 31.25 28.125 31.25C30 31.25 31.25 32.5 31.25 34.375C31.25 36.25 30 37.5 28.125 37.5C26.25 37.5 25 36.25 25 34.375ZM15.625 15.625C17.5 15.625 18.75 16.875 18.75 18.75C18.75 20.625 17.5 21.875 15.625 21.875C13.75 21.875 12.5 20.625 12.5 18.75C12.5 16.875 13.75 15.625 15.625 15.625ZM34.375 15.625C36.25 15.625 37.5 16.875 37.5 18.75C37.5 20.625 36.25 21.875 34.375 21.875C32.5 21.875 31.25 20.625 31.25 18.75C31.25 16.875 32.5 15.625 34.375 15.625Z" fill="#252526"/>
</svg>
