<?xml version="1.0" standalone="no"?>
<!--
 ~   Copyright 2021, WSO2 Inc. (http://www.wso2.com)
 ~
 ~   Licensed under the Apache License, Version 2.0 (the "License");
 ~   you may not use this file except in compliance with the License.
 ~   You may obtain a copy of the License at
 ~
 ~        http://www.apache.org/licenses/LICENSE-2.0
 ~
 ~   Unless required by applicable law or agreed to in writing, software
 ~   distributed under the License is distributed on an "AS IS" BASIS,
 ~   WITHOUT WARRANTIES OR CONDITIONS OF ANY KIND, either express or implied.
 ~   See the License for the specific language governing permissions and
 ~   limitations under the License.
-->
<svg version="1.0" xmlns="http://www.w3.org/2000/svg"
 width="400.000000pt" height="400.000000pt" viewBox="0 0 400.000000 400.000000"
 preserveAspectRatio="xMidYMid meet">
    <g transform="translate(0.000000,400.000000) scale(0.100000,-0.100000)"
    fill="#5567d5" stroke="none">
        <path fill="#C5C5C5" d="M545 3210 c-209 -82 -245 -379 -60 -497 l43 -28 4 -280 3 -281 32
        -65 c39 -80 111 -150 191 -187 55 -26 64 -27 282 -32 l225 -5 5 -330 c5 -314
        7 -333 28 -387 34 -85 97 -173 160 -224 62 -51 90 -67 171 -98 55 -21 68 -21
        838 -24 679 -2 791 -1 849 13 181 42 331 181 387 360 22 70 22 72 22 855 0
        783 0 785 -22 855 -56 179 -206 318 -387 360 -58 14 -170 15 -849 13 l-782 -3
        -59 -23 c-173 -65 -297 -199 -341 -367 -12 -48 -15 -127 -15 -407 l0 -348
        -187 0 c-169 0 -191 2 -230 21 -78 38 -83 58 -83 344 0 135 4 245 9 245 22 0
        106 89 127 135 33 70 33 170 0 240 -62 134 -223 198 -361 145z m2732 -235 c78
        -23 136 -74 175 -152 l33 -68 0 -755 0 -755 -33 -68 c-24 -47 -47 -77 -79
        -102 -88 -67 -67 -66 -899 -63 l-749 3 -51 27 c-28 15 -70 48 -92 73 -75 85
        -72 49 -72 885 0 836 -3 800 72 885 41 46 98 82 153 96 17 4 359 7 761 8 621
        1 738 -1 781 -14z"/>
        <path fill="#C5C5C5" d="M2356 2554 c-197 -48 -371 -220 -417 -414 -18 -77 -15 -223 6 -295
        53 -185 192 -325 385 -391 77 -26 298 -26 385 0 142 43 271 142 325 249 l31
        62 -40 38 c-35 32 -46 37 -88 37 -70 0 -87 -8 -108 -46 -47 -87 -159 -152
        -278 -161 -139 -11 -262 48 -337 159 -50 76 -64 124 -63 218 1 141 76 263 200
        325 54 28 66 30 168 30 91 -1 118 -4 157 -22 57 -27 128 -90 153 -137 22 -40
        56 -56 119 -56 36 0 48 6 80 39 38 39 39 41 26 73 -34 85 -133 190 -227 241
        -116 63 -333 86 -477 51z"/>
    </g>
</svg>
