<?xml version="1.0" encoding="UTF-8"?>
<!--
 ~   Copyright 2021, WSO2 Inc. (http://www.wso2.com)
 ~
 ~   Licensed under the Apache License, Version 2.0 (the "License");
 ~   you may not use this file except in compliance with the License.
 ~   You may obtain a copy of the License at
 ~
 ~        http://www.apache.org/licenses/LICENSE-2.0
 ~
 ~   Unless required by applicable law or agreed to in writing, software
 ~   distributed under the License is distributed on an "AS IS" BASIS,
 ~   WITHOUT WARRANTIES OR CONDITIONS OF ANY KIND, either express or implied.
 ~   See the License for the specific language governing permissions and
 ~   limitations under the License.
-->
<svg width="16px" height="16px" viewBox="0 0 16 16" version="1.1" xmlns="http://www.w3.org/2000/svg" xmlns:xlink="http://www.w3.org/1999/xlink">
    <title>7813150F-525F-4B26-9D2D-3389EE6A3274</title>
    <g id="Home" stroke="none" stroke-width="1" fill="none" fill-rule="evenodd">
        <g id="choose-service" transform="translate(-136.000000, -208.000000)" fill="#40404B" fill-rule="nonzero">
            <path d="M149.621622,208 L138.378378,208 C137.064836,208 136,209.064836 136,210.378378 L136,221.621622 C136,222.935164 137.064836,224 138.378378,224 L149.621622,224 C150.935164,224 152,222.935164 152,221.621622 L152,210.378378 C152,209.064836 150.935164,208 149.621622,208 Z M138.378378,209.297297 L149.621622,209.297297 C150.218686,209.297297 150.702703,209.781314 150.702703,210.378378 L150.702703,221.621622 C150.702703,222.218686 150.218686,222.702703 149.621622,222.702703 L138.378378,222.702703 C137.781314,222.702703 137.297297,222.218686 137.297297,221.621622 L137.297297,210.378378 C137.297297,209.781314 137.781314,209.297297 138.378378,209.297297 Z" id="class"></path>
        </g>
    </g>
</svg>
