<?xml version="1.0" standalone="no"?>
<!--
 ~   Copyright 2021, WSO2 Inc. (http://www.wso2.com)
 ~
 ~   Licensed under the Apache License, Version 2.0 (the "License");
 ~   you may not use this file except in compliance with the License.
 ~   You may obtain a copy of the License at
 ~
 ~        http://www.apache.org/licenses/LICENSE-2.0
 ~
 ~   Unless required by applicable law or agreed to in writing, software
 ~   distributed under the License is distributed on an "AS IS" BASIS,
 ~   WITHOUT WARRANTIES OR CONDITIONS OF ANY KIND, either express or implied.
 ~   See the License for the specific language governing permissions and
 ~   limitations under the License.
-->
<svg version="1.0" xmlns="http://www.w3.org/2000/svg"
 width="980.000000pt" height="980.000000pt" viewBox="0 0 980.000000 980.000000"
 preserveAspectRatio="xMidYMid meet">
    <g transform="translate(0.000000,980.000000) scale(0.100000,-0.100000)"
    fill="#000000" stroke="none">
        <path d="M7350 6926 c-95 -27 -153 -66 -276 -190 -93 -92 -1728 -1746 -3093
        -3129 l-97 -98 -645 662 c-354 365 -691 711 -749 770 -119 122 -185 161 -299
        181 -143 24 -281 -21 -387 -126 -138 -139 -170 -330 -85 -512 25 -53 58 -94
        169 -208 77 -77 489 -501 917 -941 488 -502 797 -812 829 -832 76 -49 107 -61
        184 -74 147 -24 281 31 428 176 67 65 1990 2010 3289 3325 282 286 303 310
        334 378 114 253 -25 547 -293 618 -62 17 -165 17 -226 0z"/>
    </g>
</svg>
