<?xml version="1.0" encoding="UTF-8"?>
<!--
 ~   Copyright 2021, WSO2 Inc. (http://www.wso2.com)
 ~
 ~   Licensed under the Apache License, Version 2.0 (the "License");
 ~   you may not use this file except in compliance with the License.
 ~   You may obtain a copy of the License at
 ~
 ~        http://www.apache.org/licenses/LICENSE-2.0
 ~
 ~   Unless required by applicable law or agreed to in writing, software
 ~   distributed under the License is distributed on an "AS IS" BASIS,
 ~   WITHOUT WARRANTIES OR CONDITIONS OF ANY KIND, either express or implied.
 ~   See the License for the specific language governing permissions and
 ~   limitations under the License.
-->
<svg width="16px" height="16px" viewBox="0 0 16 16" version="1.1" xmlns="http://www.w3.org/2000/svg" xmlns:xlink="http://www.w3.org/1999/xlink">
    <title>Icon/Bug Dark</title>
    <g id="Icon/Bug-Dark" stroke="none" stroke-width="1" fill="none" fill-rule="evenodd">
        <path d="M8,0.5 C9.59806778,0.5 11.0181649,1.4114076 12.014911,2.86277312 L13.7,1.6 L13.7767339,1.55251916 C13.9887348,1.4464384 14.2527241,1.50363209 14.4,1.7 C14.5656854,1.9209139 14.5209139,2.23431458 14.3,2.4 L14.3,2.4 L12.5270208,3.72913528 C13.0771165,4.81572442 13.4212537,6.10893906 13.4880544,7.50072928 L15,7.5 C15.2761424,7.5 15.5,7.72385763 15.5,8 C15.5,8.24545989 15.3231248,8.44960837 15.0898756,8.49194433 L15,8.5 L13.4880065,8.50026726 C13.4209463,9.89465499 13.0755116,11.1900663 12.5234882,12.2778341 L14.8123475,14.1095656 L14.8774963,14.1720009 C15.0331862,14.3507693 15.043772,14.6206756 14.8904344,14.8123475 C14.7179296,15.0279785 14.4032834,15.0629392 14.1876525,14.8904344 L14.1876525,14.8904344 L12.0079807,13.1472995 C11.0115879,14.592808 9.59436769,15.5 8,15.5 C6.40563231,15.5 4.98841209,14.592808 3.99201925,13.1472995 L1.81234752,14.8904344 C1.59671656,15.0629392 1.28207037,15.0279785 1.1095656,14.8123475 C0.956228018,14.6206756 0.966813769,14.3507693 1.12250373,14.1720009 L1.18765248,14.1095656 L3.47651179,12.2778341 C2.92448837,11.1900663 2.57905371,9.89465499 2.51199347,8.50026726 L1,8.5 C0.723857625,8.5 0.5,8.27614237 0.5,8 C0.5,7.75454011 0.676875161,7.55039163 0.910124368,7.50805567 L1,7.5 L2.51194559,7.50072928 C2.57874626,6.10893906 2.92288348,4.81572442 3.47297924,3.72913528 L1.7,2.4 C1.4790861,2.23431458 1.43431458,1.9209139 1.6,1.7 C1.74727593,1.50363209 2.01126515,1.4464384 2.22326609,1.55251916 L2.3,1.6 L3.98508899,2.86277312 C4.98183509,1.4114076 6.40193222,0.5 8,0.5 Z M12.1527845,5.50010009 L3.84721551,5.50010009 C3.62398877,6.26780346 3.5,7.11166784 3.5,8 C3.5,11.6190165 5.55784532,14.5 8,14.5 C10.4421547,14.5 12.5,11.6190165 12.5,8 C12.5,7.11166784 12.3760112,6.26780346 12.1527845,5.50010009 Z M8,1.5 C6.43062781,1.5 5.01995913,2.68972431 4.21210687,4.50048963 L11.7878931,4.50048963 C10.9800409,2.68972431 9.56937219,1.5 8,1.5 Z" id="Combined-Shape" fill="#1D2028" fill-rule="nonzero"></path>
    </g>
</svg>