<?xml version="1.0" encoding="UTF-8"?>
<!--
 ~   Copyright 2021, WSO2 Inc. (http://www.wso2.com)
 ~
 ~   Licensed under the Apache License, Version 2.0 (the "License");
 ~   you may not use this file except in compliance with the License.
 ~   You may obtain a copy of the License at
 ~
 ~        http://www.apache.org/licenses/LICENSE-2.0
 ~
 ~   Unless required by applicable law or agreed to in writing, software
 ~   distributed under the License is distributed on an "AS IS" BASIS,
 ~   WITHOUT WARRANTIES OR CONDITIONS OF ANY KIND, either express or implied.
 ~   See the License for the specific language governing permissions and
 ~   limitations under the License.
-->
<svg width="16px" height="16px" viewBox="0 0 16 16" version="1.1" xmlns="http://www.w3.org/2000/svg" xmlns:xlink="http://www.w3.org/1999/xlink">
    <title>Icon/Bug Dark</title>
    <g id="VSC" stroke="none" stroke-width="1" fill="none" fill-rule="evenodd">
        <g id="VSC-icons" transform="translate(-964.000000, -452.000000)" fill="#000000" fill-rule="nonzero">
            <path d="M972,452.5 C976.142136,452.5 979.5,455.857864 979.5,460 C979.5,461.886765 978.803293,463.610805 977.653112,464.928889 L979.411479,466.624903 L978.704372,467.332009 L976.946992,465.637263 C975.62661,466.79689 973.895415,467.5 972,467.5 C967.857864,467.5 964.5,464.142136 964.5,460 C964.5,455.857864 967.857864,452.5 972,452.5 Z M972,453.5 C968.410149,453.5 965.5,456.410149 965.5,460 C965.5,463.589851 968.410149,466.5 972,466.5 C975.589851,466.5 978.5,463.589851 978.5,460 C978.5,456.410149 975.589851,453.5 972,453.5 Z M972,455.5 C973.016429,455.5 973.915993,456.04365 974.548566,456.907868 L975.184311,456.271367 L975.891418,456.978474 L975.060856,457.809933 C975.341489,458.46059 975.5,459.208637 975.5,460 C975.5,460.454125 975.447801,460.893987 975.35028,461.309365 L975.38823,461.271367 L976.394606,462.277744 L975.687499,462.984851 L975.00901,462.306166 C974.404681,463.614017 973.297567,464.5 972,464.5 C970.718103,464.5 969.622086,463.635287 969.013103,462.353362 L968.381854,462.984851 L967.674747,462.277744 L968.648534,461.304302 C968.551776,460.890413 968.5,460.452281 968.5,460 C968.5,459.188792 968.666561,458.4231 968.960486,457.761168 L968.177935,456.978474 L968.885042,456.271367 L969.48079,456.868247 C970.111687,456.027067 970.999194,455.5 972,455.5 Z M974.479904,459.555594 L969.520096,459.555594 C969.506845,459.70091 969.5,459.849216 969.5,460 C969.5,461.959139 970.655646,463.5 972,463.5 C973.344354,463.5 974.5,461.959139 974.5,460 C974.5,459.849216 974.493155,459.70091 974.479904,459.555594 Z M972,456.5 C971.010994,456.5 970.124119,457.333939 969.724372,458.55485 L974.275628,458.55485 C973.875881,457.333939 972.989006,456.5 972,456.5 Z" id="Combined-Shape"></path>
        </g>
    </g>
</svg>
