<?xml version="1.0" encoding="UTF-8"?>
<!--
 ~   Copyright 2021, WSO2 Inc. (http://www.wso2.com)
 ~
 ~   Licensed under the Apache License, Version 2.0 (the "License");
 ~   you may not use this file except in compliance with the License.
 ~   You may obtain a copy of the License at
 ~
 ~        http://www.apache.org/licenses/LICENSE-2.0
 ~
 ~   Unless required by applicable law or agreed to in writing, software
 ~   distributed under the License is distributed on an "AS IS" BASIS,
 ~   WITHOUT WARRANTIES OR CONDITIONS OF ANY KIND, either express or implied.
 ~   See the License for the specific language governing permissions and
 ~   limitations under the License.
-->
<svg width="16px" height="16px" viewBox="0 0 16 16" version="1.1" xmlns="http://www.w3.org/2000/svg" xmlns:xlink="http://www.w3.org/1999/xlink">
    <title>Icon/Bug</title>
    <g id="VSC" stroke="none" stroke-width="1" fill="none" fill-rule="evenodd">
        <g id="VSC-icons" transform="translate(-964.000000, -1076.000000)" fill="#FFFFFF" fill-rule="nonzero">
            <path d="M972,1076.5 C976.142136,1076.5 979.5,1079.85786 979.5,1084 C979.5,1085.88676 978.803293,1087.6108 977.653112,1088.92889 L979.411479,1090.6249 L978.704372,1091.33201 L976.946992,1089.63726 C975.62661,1090.79689 973.895415,1091.5 972,1091.5 C967.857864,1091.5 964.5,1088.14214 964.5,1084 C964.5,1079.85786 967.857864,1076.5 972,1076.5 Z M972,1077.5 C968.410149,1077.5 965.5,1080.41015 965.5,1084 C965.5,1087.58985 968.410149,1090.5 972,1090.5 C975.589851,1090.5 978.5,1087.58985 978.5,1084 C978.5,1080.41015 975.589851,1077.5 972,1077.5 Z M972,1079.5 C973.016429,1079.5 973.915993,1080.04365 974.548566,1080.90787 L975.184311,1080.27137 L975.891418,1080.97847 L975.060856,1081.80993 C975.341489,1082.46059 975.5,1083.20864 975.5,1084 C975.5,1084.45413 975.447801,1084.89399 975.35028,1085.30936 L975.38823,1085.27137 L976.394606,1086.27774 L975.687499,1086.98485 L975.00901,1086.30617 C974.404681,1087.61402 973.297567,1088.5 972,1088.5 C970.718103,1088.5 969.622086,1087.63529 969.013103,1086.35336 L968.381854,1086.98485 L967.674747,1086.27774 L968.648534,1085.3043 C968.551776,1084.89041 968.5,1084.45228 968.5,1084 C968.5,1083.18879 968.666561,1082.4231 968.960486,1081.76117 L968.177935,1080.97847 L968.885042,1080.27137 L969.48079,1080.86825 C970.111687,1080.02707 970.999194,1079.5 972,1079.5 Z M974.479904,1083.55559 L969.520096,1083.55559 C969.506845,1083.70091 969.5,1083.84922 969.5,1084 C969.5,1085.95914 970.655646,1087.5 972,1087.5 C973.344354,1087.5 974.5,1085.95914 974.5,1084 C974.5,1083.84922 974.493155,1083.70091 974.479904,1083.55559 Z M972,1080.5 C971.010994,1080.5 970.124119,1081.33394 969.724372,1082.55485 L974.275628,1082.55485 C973.875881,1081.33394 972.989006,1080.5 972,1080.5 Z" id="Combined-Shape-Copy"></path>
        </g>
    </g>
</svg>
