<?xml version="1.0" standalone="no"?>
<!--
 ~   Copyright 2021, WSO2 Inc. (http://www.wso2.com)
 ~
 ~   Licensed under the Apache License, Version 2.0 (the "License");
 ~   you may not use this file except in compliance with the License.
 ~   You may obtain a copy of the License at
 ~
 ~        http://www.apache.org/licenses/LICENSE-2.0
 ~
 ~   Unless required by applicable law or agreed to in writing, software
 ~   distributed under the License is distributed on an "AS IS" BASIS,
 ~   WITHOUT WARRANTIES OR CONDITIONS OF ANY KIND, either express or implied.
 ~   See the License for the specific language governing permissions and
 ~   limitations under the License.
-->
<svg version="1.0" xmlns="http://www.w3.org/2000/svg"
 width="225.000000pt" height="225.000000pt" viewBox="0 0 225.000000 225.000000"
 preserveAspectRatio="xMidYMid meet">
    <g transform="translate(0.000000,225.000000) scale(0.100000,-0.100000)"
    fill="#000000" stroke="none">
        <path fill="#C5C5C5" d="M776 2220 c-72 -22 -106 -85 -106 -195 l0 -75 -157 0 c-131 0 -164
        -3 -192 -18 -60 -30 -76 -62 -79 -163 l-4 -89 887 0 887 0 -4 89 c-2 71 -7 95
        -24 118 -39 53 -75 63 -226 63 l-138 0 0 81 c0 94 -21 143 -73 175 -30 18 -57
        19 -387 21 -195 1 -368 -2 -384 -7z m714 -200 l0 -70 -345 0 -345 0 0 70 0 70
        345 0 345 0 0 -70z"/>
        <path fill="#C5C5C5" d="M380 832 l0 -707 25 -37 c48 -70 33 -69 742 -66 620 3 632 3 659 24
        15 11 37 33 48 48 21 27 21 38 24 737 l3 709 -751 0 -750 0 0 -708z m410 -47
        l0 -485 -70 0 -70 0 0 485 0 485 70 0 70 0 0 -485z m270 0 l0 -485 -70 0 -70
        0 0 485 0 485 70 0 70 0 0 -485z m270 0 l0 -485 -70 0 -70 0 0 485 0 485 70 0
        70 0 0 -485z m270 0 l0 -485 -70 0 -70 0 0 485 0 485 70 0 70 0 0 -485z"/>
    </g>
</svg>
