<?xml version="1.0" standalone="no"?>
<!--
 ~   Copyright 2021, WSO2 Inc. (http://www.wso2.com)
 ~
 ~   Licensed under the Apache License, Version 2.0 (the "License");
 ~   you may not use this file except in compliance with the License.
 ~   You may obtain a copy of the License at
 ~
 ~        http://www.apache.org/licenses/LICENSE-2.0
 ~
 ~   Unless required by applicable law or agreed to in writing, software
 ~   distributed under the License is distributed on an "AS IS" BASIS,
 ~   WITHOUT WARRANTIES OR CONDITIONS OF ANY KIND, either express or implied.
 ~   See the License for the specific language governing permissions and
 ~   limitations under the License.
-->
<!DOCTYPE svg PUBLIC "-//W3C//DTD SVG 20010904//EN"
 "http://www.w3.org/TR/2001/REC-SVG-20010904/DTD/svg10.dtd">
<svg version="1.0" xmlns="http://www.w3.org/2000/svg"
 width="512.000000pt" height="460.000000pt" viewBox="0 0 512.000000 460.000000"
 preserveAspectRatio="xMidYMid meet">
<g transform="translate(0.000000,460.000000) scale(0.100000,-0.100000)"
fill="#000000" stroke="none">
<path fill="#C5C5C5" d="M2728 4589 c-87 -13 -175 -37 -264 -74 -310 -128 -553 -381 -817
-850 -120 -213 -177 -258 -356 -277 l-101 -11 -21 -71 c-11 -39 -29 -101 -40
-137 -10 -36 -19 -71 -19 -78 0 -8 49 -11 170 -11 94 0 170 -2 170 -4 0 -10
-543 -2128 -581 -2266 -98 -357 -141 -451 -261 -571 -55 -55 -100 -79 -146
-79 -49 0 -56 21 -22 62 48 58 58 167 22 234 -19 35 -79 82 -119 93 -96 27
-226 6 -301 -50 l-42 -31 0 -164 0 -164 47 -34 c76 -55 129 -68 293 -73 325
-10 557 83 790 316 257 258 416 589 604 1256 41 145 376 1455 376 1469 0 3 80
6 178 6 l178 0 42 143 c23 78 42 145 42 150 0 4 -81 7 -179 7 l-180 0 30 109
c113 424 300 770 494 916 58 44 134 75 182 75 26 0 63 -32 63 -56 0 -8 -17
-47 -37 -87 -64 -123 -56 -223 24 -299 41 -39 94 -58 165 -58 164 0 268 123
256 304 -14 215 -166 317 -468 315 -63 -1 -141 -5 -172 -10z"/>
<path fill="#C5C5C5" d="M3115 3376 l-410 -72 -12 -49 c-7 -27 -11 -51 -9 -53 2 -2 40 2 85 9
230 35 317 -59 472 -511 56 -162 189 -614 189 -640 0 -29 -188 -269 -294 -376
-167 -167 -239 -184 -421 -104 -94 42 -105 45 -190 45 -74 0 -97 -4 -132 -23
-54 -28 -104 -78 -128 -128 -23 -47 -32 -180 -16 -234 18 -59 66 -117 123
-147 48 -26 62 -28 158 -28 83 0 119 5 172 23 156 54 326 212 640 597 77 94
142 171 146 172 4 2 22 -43 40 -100 51 -156 128 -344 172 -424 102 -183 245
-273 436 -273 200 0 402 130 602 386 53 69 152 217 152 228 0 6 -21 22 -47 36
l-46 24 -26 -33 c-159 -205 -208 -250 -283 -258 -56 -6 -113 21 -158 74 -42
51 -119 210 -175 362 -40 110 -154 473 -170 542 -11 46 149 294 264 410 119
119 192 137 372 94 148 -36 247 -37 312 -6 190 92 198 408 14 503 -51 26 -188
36 -266 19 -187 -40 -377 -228 -686 -680 l-78 -113 -33 119 c-58 213 -132 393
-236 576 -58 101 -63 107 -92 106 -17 -1 -215 -34 -441 -73z"/>
</g>
</svg>
