<?xml version="1.0" encoding="UTF-8"?>
<!--
 ~   Copyright 2021, WSO2 Inc. (http://www.wso2.com)
 ~
 ~   Licensed under the Apache License, Version 2.0 (the "License");
 ~   you may not use this file except in compliance with the License.
 ~   You may obtain a copy of the License at
 ~
 ~        http://www.apache.org/licenses/LICENSE-2.0
 ~
 ~   Unless required by applicable law or agreed to in writing, software
 ~   distributed under the License is distributed on an "AS IS" BASIS,
 ~   WITHOUT WARRANTIES OR CONDITIONS OF ANY KIND, either express or implied.
 ~   See the License for the specific language governing permissions and
 ~   limitations under the License.
-->
<svg width="18px" height="16px" viewBox="0 0 18 16" version="1.1" xmlns="http://www.w3.org/2000/svg" xmlns:xlink="http://www.w3.org/1999/xlink">
    <title>Icon/Function</title>
    <g id="Deploy" stroke="none" stroke-width="1" fill="none" fill-rule="evenodd">
        <g id="deploy-indication" transform="translate(-520.000000, -458.000000)" fill="#40404B" fill-rule="nonzero">
            <g id="Icon/Function-Copy-3" transform="translate(520.000000, 456.999725)">
                <path fill="#C5C5C5" d="M1.80712166,17 C3.23145401,17 4.34124629,16.0938511 5.13649852,14.2815534 C5.70029674,12.9928083 6.41543027,10.2829917 7.28189911,6.15210356 L7.28189911,6.15210356 L8.92878338,6.15210356 L9.09792285,5.41855448 L7.40652819,5.41855448 L7.74480712,4.16720604 C7.97626113,3.30420712 8.22700297,2.64832794 8.49703264,2.1995685 C8.76706231,1.75080906 9.06824926,1.52642934 9.40059347,1.52642934 C9.51928783,1.52642934 9.60237389,1.55519597 9.64985163,1.61272923 C9.69139466,1.67601582 9.71216617,1.72779576 9.71216617,1.76806904 C9.71216617,1.79683567 9.66320475,1.89320388 9.5652819,2.05717368 C9.46735905,2.22114347 9.41839763,2.38079827 9.41839763,2.53613808 C9.41839763,2.7605178 9.5074184,2.95613089 9.68545994,3.12297735 C9.86350148,3.2898238 10.074184,3.37324703 10.3175074,3.37324703 C10.5667656,3.37324703 10.7818991,3.28838547 10.962908,3.11866235 C11.1439169,2.94893923 11.2344214,2.72312118 11.2344214,2.4412082 C11.2344214,1.96368213 11.0578635,1.60409924 10.7047478,1.36245955 C10.351632,1.12081985 9.89910979,1 9.34718101,1 C8.65875371,1 7.98813056,1.27328299 7.33531157,1.81984898 C6.79525223,2.28011507 6.35163205,2.88565264 6.00445104,3.6364617 C5.65727003,4.38727077 5.43026706,4.98130169 5.32344214,5.41855448 L5.32344214,5.41855448 L3.98813056,5.41855448 L3.8189911,6.15210356 L5.15430267,6.15210356 L4.40652819,9.21574973 C3.65875371,12.6217188 3.16617211,14.6756562 2.92878338,15.377562 C2.69139466,16.0852211 2.34421365,16.4390507 1.88724036,16.4390507 C1.79821958,16.4390507 1.72255193,16.4217907 1.66023739,16.3872708 C1.59792285,16.3527508 1.56676558,16.3038475 1.56676558,16.2405609 C1.56676558,16.188781 1.615727,16.0924128 1.71364985,15.9514563 C1.8115727,15.8104998 1.86053412,15.668105 1.86053412,15.5242718 C1.86053412,15.2538655 1.76706231,15.0395541 1.58011869,14.8813376 C1.39317507,14.7231212 1.1810089,14.6440129 0.943620178,14.6440129 C0.700296736,14.6440129 0.482195846,14.7303128 0.289317507,14.9029126 C0.0964391691,15.0755124 0,15.3027688 0,15.5846818 C0,15.9759079 0.161721068,16.3096009 0.485163205,16.5857605 C0.808605341,16.8619202 1.24925816,17 1.80712166,17 Z M9.75667656,13.6084142 C10.2967359,13.6084142 10.7715134,13.3897878 11.1810089,12.9525351 C11.4540059,12.6591154 11.884273,12.0233729 12.4718101,11.0453074 L12.4718101,11.0453074 L12.5964392,10.8381877 C12.6261128,10.9302409 12.6928783,11.173319 12.7967359,11.5674218 C12.9005935,11.9615246 12.9821958,12.236246 13.041543,12.3915858 C13.1543027,12.6907587 13.2848665,12.9266451 13.4332344,13.0992449 C13.694362,13.4214311 14.0267062,13.5825243 14.4302671,13.5825243 C14.9109792,13.5825243 15.4020772,13.3523912 15.9035608,12.8921251 C16.4050445,12.431859 16.8130564,11.945703 17.1275964,11.433657 L17.1275964,11.433657 L16.7537092,11.1833873 C16.4866469,11.5228335 16.2878338,11.7558432 16.15727,11.8824164 C15.9198813,12.1183028 15.7181009,12.236246 15.5519288,12.236246 C15.3679525,12.236246 15.2284866,12.1614527 15.1335312,12.0118662 C15.0385757,11.8622798 14.9436202,11.6206401 14.8486647,11.2869471 C14.7774481,11.0453074 14.7121662,10.7820928 14.652819,10.4973031 C14.5934718,10.2125135 14.5192878,9.84861561 14.4302671,9.40560949 L14.4302671,9.40560949 L14.2611276,8.54261057 C14.7477745,7.83495146 15.0905045,7.3718087 15.2893175,7.15318231 C15.4881306,6.93455592 15.6973294,6.82524272 15.9169139,6.82524272 C16.0296736,6.82524272 16.194362,6.88852931 16.4109792,7.01510248 C16.6275964,7.14167566 16.8219585,7.20496224 16.9940653,7.20496224 C17.272997,7.20496224 17.5103858,7.1071557 17.7062315,6.91154261 C17.9020772,6.71592952 18,6.50017979 18,6.26429342 C18,6.03416037 17.9525223,5.83854729 17.8575668,5.67745415 C17.6795252,5.36677454 17.3560831,5.21143474 16.8872404,5.21143474 C16.495549,5.21143474 16.0934718,5.39122618 15.6810089,5.75080906 C15.268546,6.11039195 14.7240356,6.73606616 14.0474777,7.62783172 L14.0474777,7.62783172 L13.9495549,7.04962244 C13.8902077,6.68140956 13.8026706,6.33333333 13.6869436,6.00539374 C13.5712166,5.67745415 13.4243323,5.39841784 13.2462908,5.16828479 C13.0326409,5.20855807 12.6068249,5.27759799 11.9688427,5.37540453 C11.3308605,5.47321108 10.7448071,5.55375764 10.2106825,5.61704423 L10.2106825,5.61704423 L10.2106825,6.09169364 C10.3234421,6.08018698 10.4362018,6.07011866 10.5489614,6.06148867 C10.6617211,6.05285868 10.7329377,6.04854369 10.7626113,6.04854369 C11.0474777,6.04854369 11.2522255,6.09744696 11.3768546,6.19525351 C11.5964392,6.36209996 11.7566766,6.7101762 11.8575668,7.2394822 L11.8575668,7.2394822 L12,7.97303128 C12.0712166,8.34124416 12.1409496,8.70082704 12.2091988,9.05177994 C12.2774481,9.40273283 12.3412463,9.69902913 12.4005935,9.94066882 L12.4005935,9.94066882 L12.0445104,10.5102481 C11.652819,11.1373607 11.3902077,11.5300252 11.2566766,11.6882416 C11.1231454,11.8464581 10.9643917,11.9255663 10.7804154,11.9255663 C10.6973294,11.9255663 10.5207715,11.8622798 10.2507418,11.7357066 C9.98071217,11.6091334 9.7537092,11.5458468 9.56973294,11.5458468 C9.26706231,11.5458468 9.03115727,11.650845 8.8620178,11.8608414 C8.69287834,12.0708378 8.60830861,12.2995325 8.60830861,12.5469256 C8.60830861,12.8460985 8.72255193,13.0978065 8.95103858,13.3020496 C9.17952522,13.5062927 9.44807122,13.6084142 9.75667656,13.6084142 Z" id="fx"></path>
            </g>
        </g>
    </g>
</svg>
