<?xml version="1.0" standalone="no"?>
<!--
 ~   Copyright 2021, WSO2 Inc. (http://www.wso2.com)
 ~
 ~   Licensed under the Apache License, Version 2.0 (the "License");
 ~   you may not use this file except in compliance with the License.
 ~   You may obtain a copy of the License at
 ~
 ~        http://www.apache.org/licenses/LICENSE-2.0
 ~
 ~   Unless required by applicable law or agreed to in writing, software
 ~   distributed under the License is distributed on an "AS IS" BASIS,
 ~   WITHOUT WARRANTIES OR CONDITIONS OF ANY KIND, either express or implied.
 ~   See the License for the specific language governing permissions and
 ~   limitations under the License.
-->
<svg version="1.0" xmlns="http://www.w3.org/2000/svg"
 width="512.000000pt" height="512.000000pt" viewBox="0 0 512.000000 512.000000"
 preserveAspectRatio="xMidYMid meet">
    <g transform="translate(0.000000,512.000000) scale(0.100000,-0.100000)"
    fill="#000000" stroke="none">
        <path fill="#C5C5C5" d="M1694 5102 c-32 -26 -1062 -1179 -1090 -1220 l-24 -35 2 -1894 3
        -1895 33 -29 32 -29 1058 0 c986 0 1058 2 1078 18 45 36 56 90 28 143 -31 61
        9 59 -1049 59 l-965 0 0 1700 0 1700 485 0 c533 0 539 1 569 59 14 26 16 105
        16 626 l0 595 1170 0 1170 0 0 -1511 0 -1511 34 -34 c28 -28 42 -34 76 -34 34
        0 48 6 76 34 l34 34 0 1582 c0 1145 -3 1587 -11 1603 -6 12 -21 30 -33 39 -20
        16 -105 18 -1346 18 -1241 0 -1326 -2 -1346 -18z m-47 -1259 c-2 -2 -179 -2
        -394 -1 l-389 3 390 436 391 436 3 -435 c1 -239 1 -437 -1 -439z"/>
        <path fill="#C5C5C5" d="M3832 1374 c-48 -33 -52 -58 -52 -294 l0 -220 -224 0 c-216 0 -224
        -1 -257 -23 -59 -39 -65 -124 -12 -173 26 -24 26 -24 259 -24 l234 0 0 -221
        c0 -250 5 -275 67 -304 47 -23 95 -13 127 26 l26 31 0 234 0 234 234 0 234 0
        31 26 c39 32 49 80 26 127 -29 62 -54 67 -304 67 l-221 0 0 233 c0 205 -2 235
        -18 253 -36 45 -107 58 -150 28z"/>
    </g>
</svg>
