<?xml version="1.0" standalone="no"?>
<!--
 ~   Copyright 2021, WSO2 Inc. (http://www.wso2.com)
 ~
 ~   Licensed under the Apache License, Version 2.0 (the "License");
 ~   you may not use this file except in compliance with the License.
 ~   You may obtain a copy of the License at
 ~
 ~        http://www.apache.org/licenses/LICENSE-2.0
 ~
 ~   Unless required by applicable law or agreed to in writing, software
 ~   distributed under the License is distributed on an "AS IS" BASIS,
 ~   WITHOUT WARRANTIES OR CONDITIONS OF ANY KIND, either express or implied.
 ~   See the License for the specific language governing permissions and
 ~   limitations under the License.
-->
<svg version="1.0" xmlns="http://www.w3.org/2000/svg"
 width="980.000000pt" height="938.000000pt" viewBox="0 0 980.000000 938.000000"
 preserveAspectRatio="xMidYMid meet">
    <g transform="translate(0.000000,938.000000) scale(0.100000,-0.100000)"
    fill="#000000" stroke="none">
        <path d="M741 9369 c-356 -46 -649 -319 -722 -674 -18 -87 -19 -212 -19 -3360
        0 -2221 3 -3291 11 -3335 57 -355 342 -644 696 -705 77 -13 401 -15 2673 -13
        l2585 3 0 210 0 210 -2610 5 -2610 5 -67 32 c-94 44 -160 109 -206 202 l-37
        75 0 3305 0 3306 31 65 c39 81 96 145 165 187 110 66 50 63 1369 63 l1195 0
        425 -425 425 -425 1827 0 c1316 0 1842 -3 1880 -11 179 -38 311 -181 338 -364
        6 -45 10 -750 10 -1977 l0 -1908 210 0 210 0 0 1959 c0 1648 -2 1971 -14 2033
        -65 334 -329 604 -658 672 -69 14 -266 16 -1830 16 l-1752 0 -381 378 c-357
        356 -385 381 -456 416 -143 69 -83 66 -1419 65 -663 -1 -1234 -5 -1269 -10z"/>
        <path d="M8265 2981 c-69 -17 -116 -55 -151 -121 -18 -33 -19 -71 -22 -592
        l-3 -557 -557 -3 c-548 -3 -558 -3 -597 -25 -76 -41 -115 -105 -115 -190 1
        -91 65 -180 147 -202 24 -7 233 -11 580 -11 l542 0 3 -557 c3 -555 3 -558 25
        -600 91 -169 332 -154 392 26 8 24 11 199 11 582 l0 549 553 0 552 0 50 24
        c60 28 77 46 106 110 42 95 1 214 -91 266 l-45 25 -562 3 -563 3 0 548 c0 568
        -1 584 -42 643 -40 58 -144 96 -213 79z"/>
    </g>
</svg>
