<?xml version="1.0" standalone="no"?>
<!--
 ~   Copyright 2021, WSO2 Inc. (http://www.wso2.com)
 ~
 ~   Licensed under the Apache License, Version 2.0 (the "License");
 ~   you may not use this file except in compliance with the License.
 ~   You may obtain a copy of the License at
 ~
 ~        http://www.apache.org/licenses/LICENSE-2.0
 ~
 ~   Unless required by applicable law or agreed to in writing, software
 ~   distributed under the License is distributed on an "AS IS" BASIS,
 ~   WITHOUT WARRANTIES OR CONDITIONS OF ANY KIND, either express or implied.
 ~   See the License for the specific language governing permissions and
 ~   limitations under the License.
-->
<svg version="1.0" xmlns="http://www.w3.org/2000/svg"
 width="920.000000pt" height="832.000000pt" viewBox="0 0 920.000000 832.000000"
 preserveAspectRatio="xMidYMid meet">
    <g transform="translate(0.000000,832.000000) scale(0.100000,-0.100000)"
    fill="#000000" stroke="none">
        <path fill="#C5C5C5" d="M955 7901 c-105 -18 -244 -135 -305 -255 l-35 -70 -8 -225 c-4 -124
        -7 -1515 -5 -3091 l3 -2865 39 -73 c53 -100 136 -181 233 -229 l77 -38 3249
        -3 3249 -2 71 37 c86 46 174 125 209 190 15 26 38 93 52 148 30 121 551 2923
        715 3845 118 666 116 643 56 769 -69 144 -182 230 -351 269 l-79 18 -6 289
        c-5 268 -7 294 -27 346 -48 120 -134 214 -248 270 l-65 32 -242 8 c-133 4
        -1102 8 -2153 8 l-1911 1 -65 88 c-35 48 -93 130 -128 182 -138 207 -222 299
        -307 338 -35 16 -115 17 -1008 19 -533 0 -988 -2 -1010 -6z m1838 -308 l67 -6
        63 -86 c35 -47 104 -144 153 -215 107 -156 168 -224 247 -278 l59 -40 2152 -7
        c1957 -6 2154 -8 2181 -23 80 -43 89 -79 89 -373 l1 -240 -3020 -5 -3020 -5
        -80 -42 c-150 -77 -217 -158 -255 -310 -25 -97 -111 -537 -230 -1178 -228
        -1225 -259 -1388 -271 -1400 -5 -5 -9 791 -9 2052 l0 2061 50 45 c28 25 61 48
        73 50 36 7 1676 7 1750 0z m5431 -1634 c20 -22 41 -52 47 -66 12 -31 -6 -133
        -270 -1568 -399 -2167 -536 -2892 -553 -2912 -20 -25 -93 -35 -322 -43 -304
        -12 -5529 -12 -5846 0 -135 5 -262 14 -283 20 -44 13 -67 53 -67 118 0 34 68
        430 145 847 14 77 42 226 61 330 187 1018 495 2642 583 3079 33 166 38 181 64
        200 28 21 31 21 1205 26 647 3 2082 7 3188 8 l2012 2 36 -41z"/>
    </g>
</svg>
