<?xml version="1.0" encoding="UTF-8"?>
<!--
 ~   Copyright 2021, WSO2 Inc. (http://www.wso2.com)
 ~
 ~   Licensed under the Apache License, Version 2.0 (the "License");
 ~   you may not use this file except in compliance with the License.
 ~   You may obtain a copy of the License at
 ~
 ~        http://www.apache.org/licenses/LICENSE-2.0
 ~
 ~   Unless required by applicable law or agreed to in writing, software
 ~   distributed under the License is distributed on an "AS IS" BASIS,
 ~   WITHOUT WARRANTIES OR CONDITIONS OF ANY KIND, either express or implied.
 ~   See the License for the specific language governing permissions and
 ~   limitations under the License.
-->
<svg width="16px" height="16px" viewBox="0 0 16 16" version="1.1" xmlns="http://www.w3.org/2000/svg" xmlns:xlink="http://www.w3.org/1999/xlink">
    <title>70E670D9-9E79-4942-AC66-767F09316ACF</title>
    <g id="Home" stroke="none" stroke-width="1" fill="none" fill-rule="evenodd">
        <g id="choose-service" transform="translate(-136.000000, -256.000000)" fill="#CBCEDB" fill-rule="nonzero">
            <path fill="#40404B" d="M139.083115,271.607149 C138.034422,268.384989 137.510076,265.849273 137.510076,264 C137.510076,262.150702 138.034437,259.614942 139.083158,256.392719 C139.134293,256.235195 139.048178,256.065978 138.890693,256.014723 C138.860724,256.004969 138.829404,256 138.797887,256 L138.096733,256 L138.096733,256 C136.738243,258.308546 136.0368,260.981132 136.001284,264.008879 C135.965768,266.91232 136.667211,269.576027 138.096733,272 L138.797827,272 C138.963522,272.000018 139.097845,271.865695 139.097845,271.7 C139.097845,271.668468 139.092874,271.637133 139.083115,271.607149 Z M149.906283,256 C151.264773,258.308546 151.966216,260.981132 152.001732,264.008879 C152.037248,266.91232 151.335805,269.576027 149.906283,272 L149.205189,272 C149.039494,272.000018 148.905171,271.865695 148.905171,271.7 C148.905171,271.668468 148.910142,271.637133 148.919901,271.607149 C149.968594,268.384989 150.49294,265.849273 150.49294,264 C150.49294,262.150702 149.968579,259.614942 148.919858,256.392719 C148.868723,256.235195 148.954838,256.065978 149.112323,256.014723 C149.142292,256.004969 149.173612,256 149.205129,256 L149.906283,256 Z M144.146444,260.647249 C144.304704,260.848616 144.435267,261.092772 144.538136,261.37972 C144.641004,261.666667 144.718815,261.971233 144.771568,262.29342 L144.771568,262.29342 L144.858611,262.799353 C145.459995,262.019058 145.944005,261.471593 146.310638,261.156958 C146.677272,260.842323 147.034674,260.685005 147.382844,260.685005 C147.799593,260.685005 148.087097,260.820928 148.245356,261.092772 C148.329761,261.233729 148.371964,261.40489 148.371964,261.606257 C148.371964,261.812657 148.284921,262.001438 148.110836,262.1726 C147.936751,262.343761 147.725739,262.429342 147.4778,262.429342 C147.324816,262.429342 147.152049,262.373966 146.959501,262.263215 C146.766952,262.152463 146.620562,262.097087 146.520332,262.097087 C146.325145,262.097087 146.139191,262.192736 145.962468,262.384035 C145.785745,262.575333 145.481097,262.980583 145.048522,263.599784 L145.048522,263.599784 L145.198868,264.354908 C145.277997,264.742539 145.343939,265.060949 145.396692,265.31014 C145.449445,265.559331 145.507473,265.789644 145.570777,266.001079 C145.655182,266.29306 145.739587,266.504495 145.823991,266.635383 C145.908396,266.766271 146.032366,266.831715 146.1959,266.831715 C146.343609,266.831715 146.522969,266.728515 146.733982,266.522114 C146.850038,266.411363 147.026761,266.207479 147.26415,265.910464 L147.26415,265.910464 L147.596494,266.12945 C147.316903,266.57749 146.954226,267.002877 146.508462,267.405609 C146.062699,267.808342 145.626168,268.009709 145.198868,268.009709 C144.840147,268.009709 144.54473,267.868752 144.312617,267.586839 C144.180734,267.435814 144.064677,267.229414 143.964446,266.967638 C143.911693,266.831715 143.839158,266.591334 143.74684,266.246494 C143.654522,265.901654 143.595175,265.688961 143.568799,265.608414 L143.568799,265.608414 L143.458017,265.789644 C142.935762,266.645451 142.553302,267.201726 142.310638,267.458468 C141.946642,267.841064 141.524618,268.032362 141.044565,268.032362 C140.770249,268.032362 140.531542,267.943006 140.328442,267.764293 C140.125343,267.585581 140.023794,267.365336 140.023794,267.10356 C140.023794,266.887091 140.098967,266.686983 140.249313,266.503236 C140.399659,266.319489 140.609352,266.227616 140.878393,266.227616 C141.041927,266.227616 141.243708,266.282992 141.483734,266.393743 C141.723761,266.504495 141.880701,266.559871 141.954555,266.559871 C142.11809,266.559871 142.259204,266.490651 142.377898,266.352211 C142.496593,266.213772 142.730025,265.870191 143.078195,265.321467 L143.078195,265.321467 L143.394713,264.823085 C143.34196,264.61165 143.285251,264.352391 143.224585,264.045307 C143.163919,263.738224 143.101934,263.423589 143.03863,263.101402 L143.03863,263.101402 L142.912023,262.459547 C142.822343,261.996404 142.67991,261.691837 142.484723,261.545847 C142.373942,261.460266 142.191944,261.417476 141.938729,261.417476 C141.912353,261.417476 141.849049,261.421251 141.748818,261.428803 C141.648588,261.436354 141.548357,261.445164 141.448126,261.455232 L141.448126,261.455232 L141.448126,261.039914 C141.922903,260.984538 142.44384,260.91406 143.010935,260.828479 C143.57803,260.742898 143.956533,260.682488 144.146444,260.647249 Z" id="record"></path>
        </g>
    </g>
</svg>