<?xml version="1.0" encoding="UTF-8"?>
<!--
 ~   Copyright 2021, WSO2 Inc. (http://www.wso2.com)
 ~
 ~   Licensed under the Apache License, Version 2.0 (the "License");
 ~   you may not use this file except in compliance with the License.
 ~   You may obtain a copy of the License at
 ~
 ~        http://www.apache.org/licenses/LICENSE-2.0
 ~
 ~   Unless required by applicable law or agreed to in writing, software
 ~   distributed under the License is distributed on an "AS IS" BASIS,
 ~   WITHOUT WARRANTIES OR CONDITIONS OF ANY KIND, either express or implied.
 ~   See the License for the specific language governing permissions and
 ~   limitations under the License.
-->
<svg width="16px" height="16px" viewBox="0 0 16 16" version="1.1" xmlns="http://www.w3.org/2000/svg" xmlns:xlink="http://www.w3.org/1999/xlink">
    <title>916FA848-D16B-472B-8688-8FF7EDD67DD2</title>
    <g id="Home" stroke="none" stroke-width="1" fill="none" fill-rule="evenodd">
        <g id="choose-service" transform="translate(-136.000000, -160.000000)" fill="#CBCEDB" fill-rule="nonzero">
            <path fill="#C5C5C5" d="M144.581565,160.093366 C144.965689,160.233753 145.275511,160.521197 145.445227,160.888735 L145.502175,161.030186 L145.69637,161.591743 C145.925537,162.254434 146.648531,162.605874 147.311222,162.376706 L147.371888,162.353978 L147.431317,162.328185 L147.970166,162.077786 C148.736324,161.721758 149.646036,162.054235 150.002063,162.820393 C150.174411,163.191279 150.190234,163.61361 150.050354,163.993507 L149.990601,164.133796 L149.730836,164.668193 C149.424289,165.298832 149.687018,166.058571 150.317657,166.365118 L150.376626,166.391945 L150.436886,166.415728 L150.994969,166.619693 C151.788474,166.9097 152.196641,167.788059 151.906634,168.581565 C151.766247,168.965689 151.478803,169.275511 151.111265,169.445227 L150.969814,169.502175 L150.408257,169.69637 C149.745566,169.925537 149.394126,170.648531 149.623294,171.311222 L149.646022,171.371888 L149.671815,171.431317 L149.922214,171.970166 C150.278242,172.736324 149.945765,173.646036 149.179607,174.002063 C148.808721,174.174411 148.38639,174.190234 148.006493,174.050354 L147.866204,173.990601 L147.331807,173.730836 C146.701168,173.424289 145.941429,173.687018 145.634882,174.317657 L145.608055,174.376626 L145.584272,174.436886 L145.380307,174.994969 C145.0903,175.788474 144.211941,176.196641 143.418435,175.906634 C143.034311,175.766247 142.724489,175.478803 142.554773,175.111265 L142.497825,174.969814 L142.30363,174.408257 C142.074463,173.745566 141.351469,173.394126 140.688778,173.623294 L140.628112,173.646022 L140.568683,173.671815 L140.029834,173.922214 C139.263676,174.278242 138.353964,173.945765 137.997937,173.179607 C137.825589,172.808721 137.809766,172.38639 137.949646,172.006493 L138.009399,171.866204 L138.269164,171.331807 C138.575711,170.701168 138.312982,169.941429 137.682343,169.634882 L137.623374,169.608055 L137.563114,169.584272 L137.005031,169.380307 C136.211526,169.0903 135.803359,168.211941 136.093366,167.418435 C136.233753,167.034311 136.521197,166.724489 136.888735,166.554773 L137.030186,166.497825 L137.591743,166.30363 C138.254434,166.074463 138.605874,165.351469 138.376706,164.688778 L138.353978,164.628112 L138.328185,164.568683 L138.077786,164.029834 C137.721758,163.263676 138.054235,162.353964 138.820393,161.997937 C139.191279,161.825589 139.61361,161.809766 139.993507,161.949646 L140.133796,162.009399 L140.668193,162.269164 C141.298832,162.575711 142.058571,162.312982 142.365118,161.682343 L142.391945,161.623374 L142.415728,161.563114 L142.619693,161.005031 C142.9097,160.211526 143.788059,159.803359 144.581565,160.093366 Z M143.796246,161.287671 L143.753874,161.343248 L143.72249,161.408076 L143.518525,161.966158 C143.48998,162.044263 143.457466,162.12086 143.421111,162.195651 C142.854674,163.360945 141.484325,163.873607 140.301668,163.390727 L140.154886,163.325157 L139.620488,163.065392 C139.524302,163.018637 139.41218,163.017658 139.315193,163.062728 C139.159363,163.13514 139.080715,163.30609 139.118929,163.467003 L139.142576,163.535035 L139.392975,164.073884 C139.428019,164.149297 139.459191,164.22645 139.486369,164.305041 C139.911132,165.53334 139.299595,166.86927 138.114715,167.360425 L137.97548,167.413293 L137.413923,167.607488 C137.312848,167.642441 137.232874,167.721031 137.196162,167.82148 C137.137178,167.982872 137.202445,168.159364 137.343248,168.246126 L137.408076,168.27751 L137.966158,168.481475 C138.044263,168.51002 138.12086,168.542534 138.195651,168.578889 C139.360945,169.145326 139.873607,170.515675 139.390727,171.698332 L139.325157,171.845114 L139.065392,172.379512 C139.018637,172.475698 139.017658,172.58782 139.062728,172.684807 C139.13514,172.840637 139.30609,172.919285 139.467003,172.881071 L139.535035,172.857424 L140.073884,172.607025 C140.149297,172.571981 140.22645,172.540809 140.305041,172.513631 C141.53334,172.088868 142.86927,172.700405 143.360425,173.885285 L143.413293,174.02452 L143.607488,174.586077 C143.642441,174.687152 143.721031,174.767126 143.82148,174.803838 C143.982872,174.862822 144.159364,174.797555 144.246126,174.656752 L144.27751,174.591924 L144.481475,174.033842 C144.51002,173.955737 144.542534,173.87914 144.578889,173.804349 C145.145326,172.639055 146.515675,172.126393 147.698332,172.609273 L147.845114,172.674843 L148.379512,172.934608 C148.475698,172.981363 148.58782,172.982342 148.684807,172.937272 C148.840637,172.86486 148.919285,172.69391 148.881071,172.532997 L148.857424,172.464965 L148.607025,171.926116 C148.571981,171.850703 148.540809,171.77355 148.513631,171.694959 C148.088868,170.46666 148.700405,169.13073 149.885285,168.639575 L150.02452,168.586707 L150.586077,168.392512 C150.687152,168.357559 150.767126,168.278969 150.803838,168.17852 C150.862822,168.017128 150.797555,167.840636 150.656752,167.753874 L150.591924,167.72249 L150.033842,167.518525 C149.955737,167.48998 149.87914,167.457466 149.804349,167.421111 C148.639055,166.854674 148.126393,165.484325 148.609273,164.301668 L148.674843,164.154886 L148.934608,163.620488 C148.981363,163.524302 148.982342,163.41218 148.937272,163.315193 C148.86486,163.159363 148.69391,163.080715 148.532997,163.118929 L148.464965,163.142576 L147.926116,163.392975 C147.850703,163.428019 147.77355,163.459191 147.694959,163.486369 C146.46666,163.911132 145.13073,163.299595 144.639575,162.114715 L144.586707,161.97548 L144.392512,161.413923 C144.357559,161.312848 144.278969,161.232874 144.17852,161.196162 C144.040184,161.145604 143.890754,161.186333 143.796246,161.287671 Z M144,164.671028 C145.838541,164.671028 147.328972,166.161459 147.328972,168 C147.328972,169.838541 145.838541,171.328972 144,171.328972 C142.161459,171.328972 140.671028,169.838541 140.671028,168 C140.671028,166.161459 142.161459,164.671028 144,164.671028 Z M144,165.413707 C142.57163,165.413707 141.413707,166.57163 141.413707,168 C141.413707,169.42837 142.57163,170.586293 144,170.586293 C145.42837,170.586293 146.586293,169.42837 146.586293,168 C146.586293,166.57163 145.42837,165.413707 144,165.413707 Z" id="Combined-Shape"></path>
        </g>
    </g>
</svg>