<?xml version="1.0" encoding="UTF-8"?>
<!--
 ~   Copyright 2021, WSO2 Inc. (http://www.wso2.com)
 ~
 ~   Licensed under the Apache License, Version 2.0 (the "License");
 ~   you may not use this file except in compliance with the License.
 ~   You may obtain a copy of the License at
 ~
 ~        http://www.apache.org/licenses/LICENSE-2.0
 ~
 ~   Unless required by applicable law or agreed to in writing, software
 ~   distributed under the License is distributed on an "AS IS" BASIS,
 ~   WITHOUT WARRANTIES OR CONDITIONS OF ANY KIND, either express or implied.
 ~   See the License for the specific language governing permissions and
 ~   limitations under the License.
-->
<svg width="14px" height="12px" viewBox="0 0 14 12" version="1.1" xmlns="http://www.w3.org/2000/svg" xmlns:xlink="http://www.w3.org/1999/xlink">
    <title>Icon/Service</title>
    <g id="Deploy" stroke="none" stroke-width="1" fill="none" fill-rule="evenodd">
        <g id="deploy-indication" transform="translate(-437.000000, -458.000000)" fill="#40404B" fill-rule="nonzero">
            <g id="Combined-Shape" transform="translate(437.000000, 456.999725)">
                <path d="M5.42889738,1.41427436 C5.72297678,1.64946167 5.7931126,2.06089274 5.60906448,2.37679552 L5.54619429,2.46842873 L1.92046865,7.001 L5.54604618,11.5313861 C5.78132644,11.8253912 5.75943753,12.242183 5.51053389,12.50998 L5.42908251,12.5855775 C5.13507748,12.8208578 4.71828564,12.7989689 4.4504886,12.5500652 L4.37489112,12.4686139 L7.38520356e-13,7.00177192 L4.37474301,1.53157127 C4.63344905,1.20808393 5.10541004,1.15556832 5.42889738,1.41427436 Z M8.57110262,1.41427436 C8.89458996,1.15556832 9.36655095,1.20808393 9.62525699,1.53157127 L9.62525699,1.53157127 L14,7.00177192 L9.62510888,12.4686139 L9.5495114,12.5500652 C9.28171436,12.7989689 8.86492252,12.8208578 8.57091749,12.5855775 L8.57091749,12.5855775 L8.48946611,12.50998 C8.24056247,12.242183 8.21867356,11.8253912 8.45395382,11.5313861 L8.45395382,11.5313861 L12.0795314,7.001 L8.45380571,2.46842873 L8.39093552,2.37679552 C8.2068874,2.06089274 8.27702322,1.64946167 8.57110262,1.41427436 Z"></path>
            </g>
        </g>
    </g>
</svg>
