<?xml version="1.0" encoding="UTF-8"?>
<!--
 ~   Copyright 2021, WSO2 Inc. (http://www.wso2.com)
 ~
 ~   Licensed under the Apache License, Version 2.0 (the "License");
 ~   you may not use this file except in compliance with the License.
 ~   You may obtain a copy of the License at
 ~
 ~        http://www.apache.org/licenses/LICENSE-2.0
 ~
 ~   Unless required by applicable law or agreed to in writing, software
 ~   distributed under the License is distributed on an "AS IS" BASIS,
 ~   WITHOUT WARRANTIES OR CONDITIONS OF ANY KIND, either express or implied.
 ~   See the License for the specific language governing permissions and
 ~   limitations under the License.
-->
<svg xmlns="http://www.w3.org/2000/svg" xmlns:xlink="http://www.w3.org/1999/xlink" width="12pt" height="12pt" viewBox="0 0 12 12" version="1.1">
<g id="surface1">
<path fill="#C5C5C5" style=" stroke:none;fill-rule:evenodd;fill:rgb(0%,0%,0%);fill-opacity:1;" d="M 1.300781 4.5 L 0.773438 4.5 C 1.511719 2.179688 3.6875 0.5 6.25 0.5 C 9.421875 0.5 12 3.078125 12 6.25 C 12 9.421875 9.421875 12 6.25 12 C 3.6875 12 1.511719 10.320312 0.773438 8 L 1.300781 8 C 2.019531 10.039062 3.964844 11.5 6.25 11.5 C 9.148438 11.5 11.5 9.148438 11.5 6.25 C 11.5 3.351562 9.148438 1 6.25 1 C 3.964844 1 2.019531 2.460938 1.300781 4.5 Z M 7.414062 6 L 5.109375 4.125 L 5.445312 3.75 L 8.5 6.25 L 5.449219 8.75 L 5.109375 8.382812 L 7.414062 6.5 L 0 6.5 L 0 6 Z M 7.414062 6 "/>
</g>
</svg>
