<?xml version="1.0" standalone="no"?>
<!--
 ~   Copyright 2021, WSO2 Inc. (http://www.wso2.com)
 ~
 ~   Licensed under the Apache License, Version 2.0 (the "License");
 ~   you may not use this file except in compliance with the License.
 ~   You may obtain a copy of the License at
 ~
 ~        http://www.apache.org/licenses/LICENSE-2.0
 ~
 ~   Unless required by applicable law or agreed to in writing, software
 ~   distributed under the License is distributed on an "AS IS" BASIS,
 ~   WITHOUT WARRANTIES OR CONDITIONS OF ANY KIND, either express or implied.
 ~   See the License for the specific language governing permissions and
 ~   limitations under the License.
-->
<svg version="1.0" xmlns="http://www.w3.org/2000/svg"
 width="225.000000pt" height="225.000000pt" viewBox="0 0 225.000000 225.000000"
 preserveAspectRatio="xMidYMid meet">
    <g transform="translate(0.000000,225.000000) scale(0.100000,-0.100000)"
    fill="#000000" stroke="none">
        <path fill="#C5C5C5" d="M260 1125 l0 -1125 865 0 865 0 0 858 -1 857 -262 268 -262 268 -602
        -1 -603 0 0 -1125z m1140 785 l0 -250 250 0 250 0 0 -785 0 -785 -775 0 -775
        0 0 1035 0 1035 525 0 525 0 0 -250z m265 10 l170 -170 -173 0 -172 0 0 170
        c0 94 1 170 3 170 1 0 79 -76 172 -170z"/>
        <path fill="#C5C5C5" d="M530 1705 l0 -45 370 0 370 0 0 45 0 45 -370 0 -370 0 0 -45z"/>
        <path fill="#C5C5C5" d="M530 1285 l0 -45 595 0 595 0 0 45 0 45 -595 0 -595 0 0 -45z"/>
        <path fill="#C5C5C5" d="M530 865 l0 -45 595 0 595 0 0 45 0 45 -595 0 -595 0 0 -45z"/>
        <path fill="#C5C5C5" d="M530 445 l0 -45 595 0 595 0 0 45 0 45 -595 0 -595 0 0 -45z"/>
    </g>
</svg>
