<?xml version="1.0" standalone="no"?>
<!--
 ~   Copyright 2021, WSO2 Inc. (http://www.wso2.com)
 ~
 ~   Licensed under the Apache License, Version 2.0 (the "License");
 ~   you may not use this file except in compliance with the License.
 ~   You may obtain a copy of the License at
 ~
 ~        http://www.apache.org/licenses/LICENSE-2.0
 ~
 ~   Unless required by applicable law or agreed to in writing, software
 ~   distributed under the License is distributed on an "AS IS" BASIS,
 ~   WITHOUT WARRANTIES OR CONDITIONS OF ANY KIND, either express or implied.
 ~   See the License for the specific language governing permissions and
 ~   limitations under the License.
-->
<svg version="1.0" xmlns="http://www.w3.org/2000/svg"
 width="512.000000pt" height="512.000000pt" viewBox="0 0 512.000000 512.000000"
 preserveAspectRatio="xMidYMid meet">
    <g transform="translate(0.000000,512.000000) scale(0.100000,-0.100000)"
    fill="#C5C5C5" stroke="none">
        <path d="M2938 4312 c-31 -37 -1103 -3740 -1094 -3778 10 -40 40 -61 117 -84
        137 -41 174 -46 203 -26 15 9 31 27 37 39 5 12 250 856 545 1876 382 1324 533
        1862 529 1881 -9 43 -37 61 -142 91 -128 37 -164 38 -195 1z"/>
        <path d="M1340 3803 c-8 -3 -313 -303 -677 -667 l-663 -661 0 -100 0 -100 663
        -663 662 -662 45 0 c42 0 47 4 142 98 94 95 98 100 98 142 l0 45 -572 572
        -573 573 573 573 572 572 0 42 c0 39 -6 49 -67 114 -107 113 -152 140 -203
        122z"/>
        <path d="M3685 3782 c-22 -16 -70 -61 -107 -101 -62 -65 -68 -75 -68 -114 l0
        -42 572 -572 573 -573 -573 -573 -572 -572 0 -45 c0 -42 4 -47 98 -142 95 -94
        100 -98 142 -98 l45 0 662 662 663 663 0 100 0 100 -663 663 c-737 737 -694
        701 -772 644z"/>
    </g>
</svg>
