<?xml version="1.0" standalone="no"?>
<!--
 ~   Copyright 2021, WSO2 Inc. (http://www.wso2.com)
 ~
 ~   Licensed under the Apache License, Version 2.0 (the "License");
 ~   you may not use this file except in compliance with the License.
 ~   You may obtain a copy of the License at
 ~
 ~        http://www.apache.org/licenses/LICENSE-2.0
 ~
 ~   Unless required by applicable law or agreed to in writing, software
 ~   distributed under the License is distributed on an "AS IS" BASIS,
 ~   WITHOUT WARRANTIES OR CONDITIONS OF ANY KIND, either express or implied.
 ~   See the License for the specific language governing permissions and
 ~   limitations under the License.
-->
<svg version="1.0" xmlns="http://www.w3.org/2000/svg"
 width="225.000000pt" height="225.000000pt" viewBox="0 0 225.000000 225.000000"
 preserveAspectRatio="xMidYMid meet">
    <g transform="translate(0.000000,225.000000) scale(0.100000,-0.100000)"
    fill="#000000" stroke="none">
        <path d="M996 2144 c-11 -11 -16 -34 -16 -78 0 -34 -6 -70 -12 -79 -12 -15
        -326 -157 -349 -157 -5 0 -34 23 -64 50 -30 28 -63 50 -72 50 -19 0 -193 -170
        -193 -188 0 -6 23 -37 50 -67 35 -39 50 -64 50 -83 0 -22 -45 -144 -107 -289
        -7 -18 -61 -33 -117 -33 -29 0 -57 -5 -64 -12 -17 -17 -17 -249 0 -266 7 -7
        40 -12 79 -12 49 0 72 -5 88 -18 19 -16 151 -312 151 -339 0 -7 -22 -38 -50
        -68 -27 -30 -50 -62 -50 -71 0 -21 155 -180 182 -187 15 -4 35 8 73 44 29 27
        63 50 76 51 33 3 290 -100 312 -124 12 -15 17 -37 17 -83 0 -92 5 -95 150 -95
        142 0 150 5 150 106 0 46 4 65 18 77 25 23 300 137 330 137 16 0 42 -16 73
        -45 26 -25 56 -45 65 -45 20 0 194 169 194 188 0 6 -23 37 -50 67 -29 32 -50
        65 -50 78 0 32 99 278 123 305 17 19 31 22 88 22 57 0 70 3 79 19 14 28 13
        244 -2 259 -7 7 -37 12 -67 12 -92 0 -98 7 -173 180 -37 85 -68 166 -68 179 0
        15 17 42 45 72 25 26 45 56 45 65 0 21 -155 180 -182 187 -14 4 -35 -9 -74
        -44 -30 -27 -63 -49 -74 -49 -22 0 -263 94 -297 116 -20 12 -23 23 -23 77 0
        102 -7 107 -150 107 -94 0 -122 -3 -134 -16z m279 -716 c60 -31 124 -96 156
        -158 21 -39 24 -59 24 -145 0 -89 -3 -105 -27 -150 -32 -61 -97 -125 -158
        -156 -33 -17 -68 -24 -132 -27 -80 -4 -92 -2 -150 25 -74 36 -130 89 -166 158
        -20 39 -27 69 -30 137 -4 81 -2 92 25 150 44 92 118 158 213 189 14 5 63 7
        110 5 68 -2 95 -8 135 -28z"/>
    </g>
</svg>
