<?xml version="1.0" encoding="UTF-8"?>
<svg width="14px" height="14px" viewBox="0 0 14 14" version="1.1" xmlns="http://www.w3.org/2000/svg" xmlns:xlink="http://www.w3.org/1999/xlink">
    <title>Icon/MainFunction</title>
    <g id="Deploy" stroke="none" stroke-width="1" fill="none" fill-rule="evenodd">
        <g id="deploy-indication" transform="translate(-621.000000, -457.000000)" fill="#40404B" fill-rule="nonzero">
            <g id="Combined-Shape" transform="translate(621.000000, 456.999725)">
                <path d="M11.3383991,0 C12.325167,0 13.013232,0.721983944 13.013232,1.7708677 L13.013232,5.86891015 C13.013232,6.08720994 13.181973,6.26426922 13.390017,6.26426922 L13.8084633,6.26426922 C13.9143194,6.26426922 14,6.35417354 14,6.46524799 L14,7.53475201 C14,7.64582646 13.9143194,7.73573078 13.8084633,7.73573078 L13.389755,7.73573078 C13.181711,7.73573078 13.013232,7.91251512 13.013232,8.13081491 L13.013232,12.2288574 C13.013232,13.2780161 12.325167,14 11.3383991,14 L9.12760383,14 C9.02174767,14 8.93606708,13.9100957 8.93606708,13.7990212 L8.93606708,12.743264 C8.93606708,12.6321896 9.02174767,12.5422853 9.12760383,12.5422853 L11.117516,12.5422853 C11.3255601,12.5422853 11.494039,12.3655009 11.494039,12.1472011 L11.494039,8.13053998 C11.4943011,7.54464973 11.766802,7.21774992 12.104284,6.99972506 C11.766802,6.78170021 11.4943011,6.4548004 11.4943011,5.86891015 L11.4943011,1.85279886 C11.4943011,1.63449907 11.3255601,1.45743979 11.117516,1.45743979 L9.12760383,1.45743979 C9.02174767,1.45743979 8.93606708,1.36753547 8.93606708,1.25646101 L8.93606708,0.200978775 C8.93606708,0.089904322 9.02174767,0 9.12760383,0 L11.3383991,0 Z M4.87239617,0 C4.97825233,0 5.06393292,0.089904322 5.06393292,0.200978775 L5.06393292,1.25646101 C5.06393292,1.36753547 4.97825233,1.45743979 4.87239617,1.45743979 L2.88248395,1.45743979 C2.67443993,1.45743979 2.50596096,1.63422413 2.50596096,1.85252392 L2.50596096,5.86891015 C2.50596096,6.4548004 2.23345998,6.78170021 1.89597799,6.99972506 C2.23345998,7.21774992 2.50596096,7.54464973 2.50596096,8.13053998 L2.50596096,12.1469262 C2.50569894,12.365226 2.67417791,12.5420103 2.88222193,12.5420103 L4.87213415,12.5420103 C4.97799031,12.5420103 5.0636709,12.6319147 5.0636709,12.7429891 L5.0636709,13.7987463 C5.0636709,13.9098207 4.97799031,13.9997251 4.87213415,13.9997251 L2.66160094,13.9997251 C1.67483296,13.9997251 0.986767981,13.2777411 0.986767981,12.2285824 L0.986767981,8.13053998 C0.986767981,7.91224018 0.818289008,7.73545585 0.610244989,7.73545585 L0.191536748,7.73545585 C0.0856805974,7.73545585 -2.14939178e-13,7.64555152 -2.14939178e-13,7.53447707 L-2.14939178e-13,6.46497306 C-2.14939178e-13,6.3538986 0.0856805974,6.26399428 0.191536748,6.26399428 L0.610244989,6.26399428 C0.818289008,6.26399428 0.986767981,6.08720994 0.986767981,5.86891015 L0.986767981,1.7708677 C0.986767981,0.721983944 1.67483296,0 2.66160094,0 L4.87239617,0 Z"></path>
            </g>
        </g>
    </g>
</svg>
