<?xml version="1.0" standalone="no"?>
<svg version="1.0" xmlns="http://www.w3.org/2000/svg"
 width="512.000000pt" height="512.000000pt" viewBox="0 0 512.000000 512.000000"
 preserveAspectRatio="xMidYMid meet">
    <g transform="translate(0.000000,512.000000) scale(0.100000,-0.100000)"
    fill="#000000" stroke="none">
        <path fill="#C5C5C5" d="M2485 4324 c-167 -16 -342 -77 -475 -167 -66 -45 -186 -163 -235
        -232 -273 -384 -231 -907 99 -1241 l71 -72 -60 -23 c-81 -30 -214 -101 -305
        -162 -410 -273 -691 -715 -765 -1202 -8 -58 -15 -169 -15 -262 l0 -163 1761 0
        1761 0 -5 208 c-6 228 -24 339 -87 523 -157 462 -514 849 -961 1043 l-95 42
        47 42 c66 59 162 188 203 275 63 131 88 235 93 392 4 114 1 158 -15 235 -77
        373 -370 667 -742 744 -72 15 -213 25 -275 20z m168 -338 c210 -21 419 -191
        503 -411 36 -92 45 -266 20 -364 -65 -254 -288 -452 -541 -479 -296 -32 -560
        130 -672 413 -26 65 -28 80 -28 215 0 135 2 150 28 215 72 181 205 314 381
        380 65 24 188 45 231 39 11 -1 46 -5 78 -8z m175 -1617 c289 -55 527 -183 743
        -398 212 -213 353 -476 398 -746 7 -38 14 -78 16 -87 3 -17 -70 -18 -1421 -18
        l-1424 0 0 25 c0 43 30 175 60 267 71 211 185 394 349 559 253 252 543 386
        916 423 75 7 260 -6 363 -25z"/>
    </g>
</svg>
