<!--
 ~   Copyright (c) 2025, WSO2 LLC. (https://www.wso2.com). All Rights Reserved.
 ~   
 ~   This software is the property of WSO2 LLC. and its suppliers, if any.
 ~   Dissemination of any information or reproduction of any material contained
 ~   herein in any form is strictly forbidden, unless permitted by WSO2 expressly.
 ~   You may not alter or remove any copyright or other notice from copies of this content.
-->
<svg xmlns="http://www.w3.org/2000/svg" width="24" height="24" viewBox="0 0 24 24">
    <path fill="#000"
        d="M12 17q-1.825 0-3.187-1.137T7.1 13H3q-.425 0-.712-.288T2 12t.288-.712T3 11h4.1q.35-1.725 1.713-2.863T12 7t3.188 1.138T16.9 11H21q.425 0 .713.288T22 12t-.288.713T21 13h-4.1q-.35 1.725-1.712 2.863T12 17m0-2q1.25 0 2.125-.875T15 12t-.875-2.125T12 9t-2.125.875T9 12t.875 2.125T12 15" />
</svg>
