<!--
 ~   Copyright (c) 2025, WSO2 LLC. (https://www.wso2.com). All Rights Reserved.
 ~   
 ~   This software is the property of WSO2 LLC. and its suppliers, if any.
 ~   Dissemination of any information or reproduction of any material contained
 ~   herein in any form is strictly forbidden, unless permitted by WSO2 expressly.
 ~   You may not alter or remove any copyright or other notice from copies of this content.
-->
<svg xmlns="http://www.w3.org/2000/svg" width="24" height="24" viewBox="0 0 24 24">
    <path fill="#000"
        d="M7 21q-.825 0-1.412-.587T5 19V6q-.425 0-.712-.288T4 5t.288-.712T5 4h4q0-.425.288-.712T10 3h4q.425 0 .713.288T15 4h4q.425 0 .713.288T20 5t-.288.713T19 6v13q0 .825-.587 1.413T17 21zM17 6H7v13h10zM7 6v13zm5 7.9l1.9 1.9q.275.275.7.275t.7-.275t.275-.7t-.275-.7l-1.9-1.9l1.9-1.9q.275-.275.275-.7t-.275-.7t-.7-.275t-.7.275L12 11.1l-1.9-1.9q-.275-.275-.7-.275t-.7.275t-.275.7t.275.7l1.9 1.9l-1.9 1.9q-.275.275-.275.7t.275.7t.7.275t.7-.275z" />
</svg>
