<!--
 ~   Copyright (c) 2025, WSO2 LLC. (https://www.wso2.com). All Rights Reserved.
 ~   
 ~   This software is the property of WSO2 LLC. and its suppliers, if any.
 ~   Dissemination of any information or reproduction of any material contained
 ~   herein in any form is strictly forbidden, unless permitted by WSO2 expressly.
 ~   You may not alter or remove any copyright or other notice from copies of this content.
-->
<svg xmlns="http://www.w3.org/2000/svg" width="24" height="24" viewBox="0 0 24 24">
    <path fill="#000"
        d="M5 19h1.425L16.2 9.225L14.775 7.8L5 17.575zm-1 2q-.425 0-.712-.288T3 20v-2.425q0-.4.15-.763t.425-.637L16.2 3.575q.3-.275.663-.425t.762-.15t.775.15t.65.45L20.425 5q.3.275.437.65T21 6.4q0 .4-.138.763t-.437.662l-12.6 12.6q-.275.275-.638.425t-.762.15zM19 6.4L17.6 5zm-3.525 2.125l-.7-.725L16.2 9.225z" />
</svg>
