<!--
 ~   Copyright (c) 2025, WSO2 LLC. (https://www.wso2.com). All Rights Reserved.
 ~   
 ~   This software is the property of WSO2 LLC. and its suppliers, if any.
 ~   Dissemination of any information or reproduction of any material contained
 ~   herein in any form is strictly forbidden, unless permitted by WSO2 expressly.
 ~   You may not alter or remove any copyright or other notice from copies of this content.
-->
<svg xmlns="http://www.w3.org/2000/svg" width="24" height="24" viewBox="0 0 24 24">
    <path fill="#000" fill-rule="evenodd"
        d="M8 8.83a3.001 3.001 0 1 0-2 0v6.34a3.001 3.001 0 1 0 2 0zM7 5a1 1 0 1 0 0 2a1 1 0 0 0 0-2m0 12a1 1 0 1 0 0 2a1 1 0 0 0 0-2m9-1.83V8.83a3.001 3.001 0 1 1 2 0v6.34a3.001 3.001 0 1 1-2 0M16 18a1 1 0 1 1 2 0a1 1 0 0 1-2 0m1-13a1 1 0 1 0 0 2a1 1 0 0 0 0-2"
        clip-rule="evenodd" />
</svg>
