<!--
 ~   Copyright (c) 2024, WSO2 LLC. (https://www.wso2.com). All Rights Reserved.
 ~   
 ~   This software is the property of WSO2 LLC. and its suppliers, if any.
 ~   Dissemination of any information or reproduction of any material contained
 ~   herein in any form is strictly forbidden, unless permitted by WSO2 expressly.
 ~   You may not alter or remove any copyright or other notice from copies of this content.
-->
<svg xmlns="http://www.w3.org/2000/svg" width="24" height="24">
    <path
        d="M6.499 3.043c-1.12.19-2.038 1.005-2.385 2.117-.087.278-.094.367-.094 1.223v.923l.121.197a.998.998 0 0 0 1.718 0l.121-.197.022-.783c.025-.887.048-.976.319-1.24C6.612 5.001 6.622 5 8.947 5H11v14H9.946c-1.149 0-1.302.022-1.564.221-.08.061-.195.194-.254.295-.091.156-.108.23-.108.484 0 .256.016.328.111.489.125.213.318.375.539.454.221.079 6.439.079 6.66 0 .221-.079.414-.241.539-.454.095-.161.111-.233.111-.489 0-.254-.017-.328-.108-.484a1.209 1.209 0 0 0-.254-.295c-.262-.199-.415-.221-1.564-.221H13V5h2.053c2.325 0 2.335.001 2.626.283.271.264.294.353.319 1.24l.022.783.121.197a.998.998 0 0 0 1.718 0l.121-.197v-.923c0-.856-.007-.945-.094-1.223a3.089 3.089 0 0 0-2.025-2.039l-.321-.101-5.42-.006c-2.981-.003-5.511.01-5.621.029"
        fill-rule="evenodd" />
</svg>
