<!--
 ~   Copyright (c) 2023, WSO2 LLC. (https://www.wso2.com). All Rights Reserved.
 ~   
 ~   This software is the property of WSO2 LLC. and its suppliers, if any.
 ~   Dissemination of any information or reproduction of any material contained
 ~   herein in any form is strictly forbidden, unless permitted by WSO2 expressly.
 ~   You may not alter or remove any copyright or other notice from copies of this content.
-->
<svg xmlns="http://www.w3.org/2000/svg" width="48" height="48" viewBox="0 0 48 48">
    <g fill="none">
        <path stroke="currentColor" stroke-linecap="round" stroke-linejoin="round" stroke-width="4" d="M42 18v22a2 2 0 0 1-2 2H8a2 2 0 0 1-2-2V18" />
        <path stroke="currentColor" stroke-linejoin="round" stroke-width="4" d="M6 8a2 2 0 0 1 2-2h32a2 2 0 0 1 2 2v10H6V8Z" />
        <path fill="currentColor" fill-rule="evenodd"
            d="M12 14a2 2 0 1 0 0-4a2 2 0 0 0 0 4Zm6 0a2 2 0 1 0 0-4a2 2 0 0 0 0 4Zm6 0a2 2 0 1 0 0-4a2 2 0 0 0 0 4Z" clip-rule="evenodd" />
    </g>
</svg>
