<svg width="96" height="68" viewBox="0 0 96 68" fill="none" xmlns="http://www.w3.org/2000/svg">
<path d="M0.189453 48.6971L2.709 45.8901L16.3044 58.1783L29.674 46.1009L32.1929 48.9088L16.3037 63.2619L0.189453 48.6971Z" fill="black"/>
<path d="M18.1885 7.99219V60.7201H14.4238V7.99219H18.1885Z" fill="black"/>
<mask id="path-3-inside-1_365_678" fill="white">
<path d="M42.5705 21.9451C41.1672 21.9451 39.972 21.5619 38.9849 20.7955C37.9978 20.023 37.2434 18.9046 36.7219 17.4405C36.2003 15.9701 35.9395 14.1945 35.9395 12.1135C35.9395 10.045 36.2003 8.27873 36.7219 6.81458C37.2496 5.34422 38.0071 4.22276 38.9942 3.45017C39.9875 2.67138 41.1796 2.28198 42.5705 2.28198C43.9614 2.28198 45.1504 2.67138 46.1375 3.45017C47.1308 4.22276 47.8883 5.34422 48.4099 6.81458C48.9376 8.27873 49.2016 10.045 49.2016 12.1135C49.2016 14.1945 48.9407 15.9701 48.4192 17.4405C47.8977 18.9046 47.1432 20.023 46.1561 20.7955C45.169 21.5619 43.9738 21.9451 42.5705 21.9451ZM42.5705 19.8891C43.9614 19.8891 45.0417 19.2162 45.8114 17.8704C46.5813 16.5246 46.9665 14.6057 46.9665 12.1135C46.9665 10.4562 46.7894 9.04506 46.4354 7.87997C46.0878 6.7149 45.5849 5.82708 44.9267 5.21649C44.2748 4.60591 43.4893 4.30062 42.5705 4.30062C41.1921 4.30062 40.1149 4.98286 39.3387 6.34731C38.5628 7.70552 38.1746 9.6276 38.1746 12.1135C38.1746 13.7708 38.3485 15.1789 38.6961 16.3377C39.0439 17.4966 39.5437 18.3782 40.1956 18.9825C40.8538 19.5869 41.6452 19.8891 42.5705 19.8891Z"/>
</mask>
<path d="M42.5705 21.9451C41.1672 21.9451 39.972 21.5619 38.9849 20.7955C37.9978 20.023 37.2434 18.9046 36.7219 17.4405C36.2003 15.9701 35.9395 14.1945 35.9395 12.1135C35.9395 10.045 36.2003 8.27873 36.7219 6.81458C37.2496 5.34422 38.0071 4.22276 38.9942 3.45017C39.9875 2.67138 41.1796 2.28198 42.5705 2.28198C43.9614 2.28198 45.1504 2.67138 46.1375 3.45017C47.1308 4.22276 47.8883 5.34422 48.4099 6.81458C48.9376 8.27873 49.2016 10.045 49.2016 12.1135C49.2016 14.1945 48.9407 15.9701 48.4192 17.4405C47.8977 18.9046 47.1432 20.023 46.1561 20.7955C45.169 21.5619 43.9738 21.9451 42.5705 21.9451ZM42.5705 19.8891C43.9614 19.8891 45.0417 19.2162 45.8114 17.8704C46.5813 16.5246 46.9665 14.6057 46.9665 12.1135C46.9665 10.4562 46.7894 9.04506 46.4354 7.87997C46.0878 6.7149 45.5849 5.82708 44.9267 5.21649C44.2748 4.60591 43.4893 4.30062 42.5705 4.30062C41.1921 4.30062 40.1149 4.98286 39.3387 6.34731C38.5628 7.70552 38.1746 9.6276 38.1746 12.1135C38.1746 13.7708 38.3485 15.1789 38.6961 16.3377C39.0439 17.4966 39.5437 18.3782 40.1956 18.9825C40.8538 19.5869 41.6452 19.8891 42.5705 19.8891Z" fill="black"/>
<path d="M38.9849 20.7955L32.5134 29.0642L32.5296 29.0768L32.5458 29.0894L38.9849 20.7955ZM36.7219 17.4405L26.8258 20.9504L26.8306 20.9637L36.7219 17.4405ZM36.7219 6.81458L26.8391 3.26761L26.8348 3.27954L26.8306 3.29147L36.7219 6.81458ZM38.9942 3.45017L45.4659 11.7187L45.4727 11.7133L38.9942 3.45017ZM46.1375 3.45017L39.6338 11.6935L39.6624 11.716L39.691 11.7383L46.1375 3.45017ZM48.4099 6.81458L38.5139 10.3245L38.5228 10.3497L38.5319 10.3749L48.4099 6.81458ZM48.4192 17.4405L58.3105 20.9637L58.3152 20.9504L48.4192 17.4405ZM46.1561 20.7955L52.5952 29.0894L52.6114 29.0768L52.6276 29.0642L46.1561 20.7955ZM45.8114 17.8704L36.6977 12.6559L36.6968 12.6575L45.8114 17.8704ZM46.4354 7.87997L36.3736 10.8817L36.3812 10.9074L36.389 10.933L46.4354 7.87997ZM44.9267 5.21649L37.7493 12.8803L37.7674 12.8973L37.7856 12.9141L44.9267 5.21649ZM39.3387 6.34731L48.4559 11.5557L48.4606 11.5474L48.4653 11.5391L39.3387 6.34731ZM38.6961 16.3377L28.6387 19.3542L28.6394 19.3565L38.6961 16.3377ZM40.1956 18.9825L33.0575 26.683L33.0757 26.6998L33.0939 26.7166L40.1956 18.9825ZM42.5705 11.4451C42.8299 11.4451 43.2743 11.4817 43.8271 11.6589C44.3935 11.8405 44.9433 12.1285 45.424 12.5017L32.5458 29.0894C35.6 31.4606 39.1376 32.4451 42.5705 32.4451V11.4451ZM45.4564 12.5269C46.3726 13.244 46.627 13.9562 46.6131 13.9173L26.8306 20.9637C27.8598 23.8531 29.623 26.802 32.5134 29.0642L45.4564 12.5269ZM46.6179 13.9307C46.6044 13.8928 46.4395 13.3726 46.4395 12.1135H25.4395C25.4395 15.0164 25.7963 18.0475 26.8258 20.9504L46.6179 13.9307ZM46.4395 12.1135C46.4395 11.5143 46.4777 11.0746 46.5225 10.7713C46.5445 10.6219 46.567 10.5132 46.5846 10.4408C46.6021 10.3686 46.6137 10.3362 46.6131 10.3377L26.8306 3.29147C25.7978 6.19096 25.4395 9.21691 25.4395 12.1135H46.4395ZM46.6046 10.3615C46.6273 10.2983 46.381 11.0024 45.4659 11.7187L32.5226 -4.81833C29.6333 -2.55691 27.8718 0.390155 26.8391 3.26761L46.6046 10.3615ZM45.4727 11.7133C45.0115 12.0749 44.47 12.3668 43.8936 12.555C43.329 12.7395 42.8627 12.782 42.5705 12.782V-8.21802C39.0847 -8.21802 35.5479 -7.19027 32.5157 -4.81296L45.4727 11.7133ZM42.5705 12.782C42.2787 12.782 41.8085 12.7396 41.2374 12.5525C40.6539 12.3614 40.1036 12.0642 39.6338 11.6935L52.6411 -4.79317C49.603 -7.19016 46.0555 -8.21802 42.5705 -8.21802V12.782ZM39.691 11.7383C38.7615 11.0153 38.502 10.2912 38.5139 10.3245L58.3058 3.30468C57.2746 0.397269 55.5001 -2.56982 52.5839 -4.83798L39.691 11.7383ZM38.5319 10.3749C38.5297 10.3689 38.5746 10.4928 38.6189 10.7892C38.6632 11.0859 38.7016 11.5195 38.7016 12.1135H59.7016C59.7016 9.20606 59.3375 6.16651 58.2878 3.25431L38.5319 10.3749ZM38.7016 12.1135C38.7016 13.3726 38.5366 13.8927 38.5232 13.9307L58.3152 20.9504C59.3447 18.0475 59.7016 15.0164 59.7016 12.1135H38.7016ZM38.5279 13.9173C38.514 13.9562 38.7684 13.244 39.6846 12.5269L52.6276 29.0642C55.518 26.802 57.2813 23.8531 58.3104 20.9637L38.5279 13.9173ZM39.717 12.5017C40.1977 12.1285 40.7475 11.8405 41.3139 11.6589C41.8667 11.4817 42.3111 11.4451 42.5705 11.4451V32.4451C46.0034 32.4451 49.541 31.4606 52.5952 29.0894L39.717 12.5017ZM42.5705 30.3891C48.2229 30.3891 52.5457 27.2451 54.9259 23.0833L36.6968 12.6575C36.9886 12.1473 37.6479 11.2347 38.8725 10.4719C40.1514 9.67532 41.4923 9.38905 42.5705 9.38905V30.3891ZM54.9251 23.0848C56.9962 19.4649 57.4665 15.4359 57.4665 12.1135H36.4665C36.4665 12.4689 36.4526 12.7491 36.434 12.962C36.4154 13.1756 36.3936 13.3027 36.3829 13.3561C36.3721 13.4099 36.3767 13.3679 36.418 13.2514C36.4595 13.134 36.544 12.9245 36.6977 12.6559L54.9251 23.0848ZM57.4665 12.1135C57.4665 9.76782 57.2229 7.26587 56.4817 4.8269L36.389 10.933C36.3668 10.8597 36.389 10.9094 36.4153 11.1192C36.4415 11.3274 36.4665 11.6524 36.4665 12.1135H57.4665ZM56.4971 4.87822C55.7962 2.52863 54.5055 -0.219778 52.0679 -2.48116L37.7856 12.9141C36.6643 11.8739 36.3794 10.9012 36.3736 10.8817L56.4971 4.87822ZM52.1042 -2.4473C49.4454 -4.93737 46.0701 -6.19938 42.5705 -6.19938V14.8006C41.8466 14.8006 40.9701 14.676 40.0447 14.3163C39.1141 13.9546 38.3426 13.436 37.7493 12.8803L52.1042 -2.4473ZM42.5705 -6.19938C36.8252 -6.19938 32.5428 -2.94172 30.2121 1.15549L48.4653 11.5391C48.1968 12.0112 47.56 12.9145 46.3467 13.683C45.0685 14.4925 43.7027 14.8006 42.5705 14.8006V-6.19938ZM30.2215 1.13895C28.1557 4.75506 27.6746 8.77242 27.6746 12.1135H48.6746C48.6746 11.7627 48.6884 11.486 48.7069 11.2759C48.7254 11.065 48.7472 10.9391 48.758 10.8857C48.7837 10.758 48.7446 11.0502 48.4559 11.5557L30.2215 1.13895ZM27.6746 12.1135C27.6746 14.4441 27.912 16.9313 28.6387 19.3542L48.7534 13.3212C48.7752 13.3937 48.7524 13.3412 48.7258 13.1258C48.6995 12.9123 48.6746 12.5814 48.6746 12.1135H27.6746ZM28.6394 19.3565C29.3383 21.6849 30.6234 24.4266 33.0575 26.683L47.3338 11.2821C48.464 12.3297 48.7495 13.3082 48.7528 13.319L28.6394 19.3565ZM33.0939 26.7166C35.7633 29.1677 39.1172 30.3891 42.5705 30.3891V9.38905C43.2698 9.38905 44.1223 9.50726 45.0276 9.85287C45.939 10.2008 46.703 10.7027 47.2973 11.2485L33.0939 26.7166Z" fill="black" mask="url(#path-3-inside-1_365_678)"/>
<path d="M66.8217 2.54346V21.6832H64.512V4.97331H64.4002L59.7437 8.07603V5.72094L64.512 2.54346H66.8217Z" fill="black"/>
<path d="M85.905 21.9451C84.502 21.9451 83.3068 21.5619 82.3194 20.7955C81.3323 20.023 80.5778 18.9046 80.0563 17.4405C79.5348 15.9701 79.2739 14.1945 79.2739 12.1135C79.2739 10.045 79.5348 8.27873 80.0563 6.81458C80.584 5.34422 81.3416 4.22276 82.3287 3.45017C83.322 2.67138 84.5144 2.28198 85.905 2.28198C87.2959 2.28198 88.4848 2.67138 89.472 3.45017C90.4656 4.22276 91.2228 5.34422 91.7443 6.81458C92.272 8.27873 92.536 10.045 92.536 12.1135C92.536 14.1945 92.2751 15.9701 91.7536 17.4405C91.2321 18.9046 90.4777 20.023 89.4906 20.7955C88.5035 21.5619 87.3083 21.9451 85.905 21.9451ZM85.905 19.8891C87.2959 19.8891 88.3761 19.2162 89.1461 17.8704C89.9158 16.5246 90.3009 14.6057 90.3009 12.1135C90.3009 10.4562 90.1239 9.04506 89.7701 7.87997C89.4223 6.7149 88.9194 5.82708 88.2612 5.21649C87.6093 4.60591 86.824 4.30062 85.905 4.30062C84.5265 4.30062 83.4494 4.98286 82.6735 6.34731C81.8973 7.70552 81.5093 9.6276 81.5093 12.1135C81.5093 13.7708 81.683 15.1789 82.0308 16.3377C82.3784 17.4966 82.8782 18.3782 83.5301 18.9825C84.1883 19.5869 84.98 19.8891 85.905 19.8891Z" fill="black"/>
<path d="M48.2094 26.1946V45.3342H45.8997V28.6243H45.7879L41.1313 31.7271V29.372L45.8997 26.1946H48.2094Z" fill="black"/>
<path d="M67.7763 26.1946V45.3342H65.4666V28.6243H65.3548L60.6982 31.7271V29.372L65.4666 26.1946H67.7763Z" fill="black"/>
<path d="M86.8596 45.5955C85.4563 45.5955 84.2611 45.2124 83.274 44.446C82.2869 43.6733 81.5324 42.555 81.0109 41.091C80.4894 39.6205 80.2285 37.8449 80.2285 35.7638C80.2285 33.6955 80.4894 31.9292 81.0109 30.4649C81.5386 28.9947 82.2962 27.8731 83.2833 27.1006C84.2766 26.3218 85.4687 25.9324 86.8596 25.9324C88.2504 25.9324 89.4394 26.3218 90.4265 27.1006C91.4199 27.8731 92.1774 28.9947 92.6989 30.4649C93.2266 31.9292 93.4906 33.6955 93.4906 35.7638C93.4906 37.8449 93.2297 39.6205 92.7082 41.091C92.1867 42.555 91.4323 43.6733 90.4452 44.446C89.4581 45.2124 88.2629 45.5955 86.8596 45.5955ZM86.8596 43.5393C88.2504 43.5393 89.3307 42.8667 90.1007 41.5208C90.8704 40.175 91.2555 38.256 91.2555 35.7638C91.2555 34.1066 91.0785 32.6956 90.7247 31.5305C90.3768 30.3652 89.874 29.4775 89.2158 28.8669C88.5639 28.2563 87.7783 27.951 86.8596 27.951C85.4811 27.951 84.4039 28.6331 83.6278 29.9977C82.8519 31.356 82.4636 33.2781 82.4636 35.7638C82.4636 37.4213 82.6376 38.8292 82.9854 39.988C83.333 41.1468 83.8328 42.0286 84.4847 42.6329C85.1429 43.2373 85.9346 43.5393 86.8596 43.5393Z" fill="black"/>
<path d="M43.7119 67.602C42.3086 67.602 41.1134 67.2189 40.1263 66.4525C39.1392 65.6799 38.3847 64.5616 37.8632 63.0976C37.3417 61.6271 37.0808 59.8514 37.0808 57.7703C37.0808 55.702 37.3417 53.9357 37.8632 52.4715C38.3909 51.0012 39.1485 49.8798 40.1356 49.1071C41.1289 48.3283 42.321 47.939 43.7119 47.939C45.1027 47.939 46.2917 48.3283 47.2788 49.1071C48.2721 49.8798 49.0297 51.0012 49.5512 52.4715C50.0789 53.9357 50.3429 55.702 50.3429 57.7703C50.3429 59.8514 50.082 61.6271 49.5605 63.0976C49.039 64.5616 48.2846 65.6799 47.2975 66.4525C46.3104 67.2189 45.1152 67.602 43.7119 67.602ZM43.7119 65.5459C45.1027 65.5459 46.183 64.8732 46.953 63.5274C47.7227 62.1816 48.1078 60.2625 48.1078 57.7703C48.1078 56.1131 47.9308 54.7021 47.577 53.5371C47.2291 52.372 46.7263 51.484 46.0681 50.8734C45.4162 50.2629 44.6309 49.9577 43.7119 49.9577C42.3334 49.9577 41.2562 50.6397 40.4801 52.0042C39.7042 53.3625 39.3159 55.2847 39.3159 57.7703C39.3159 59.4278 39.4898 60.8357 39.8377 61.9946C40.1853 63.1534 40.685 64.0351 41.337 64.6395C41.9952 65.2438 42.7869 65.5459 43.7119 65.5459Z" fill="black"/>
<path d="M67.9638 48.2007V67.3404H65.6541V50.6305H65.5423L60.8857 53.7333V51.3783L65.6541 48.2007H67.9638Z" fill="black"/>
<path d="M87.5309 48.2007V67.3404H85.221V50.6305H85.1095L80.4526 53.7333V51.3783L85.221 48.2007H87.5309Z" fill="black"/>
</svg>
