<svg width="16" height="16" viewBox="0 0 16 16" fill="none" xmlns="http://www.w3.org/2000/svg">
            <path
                fillRule="evenodd"
                clipRule="evenodd"
                d="M6 8C7.10457 8 8 7.10457 8 6C8 4.89543 7.10457 4 6 4C4.89543 4 4 4.89543 4 6C4 7.10457 4.89543 8 6 8ZM6 7C6.55228 7 7 6.55228 7 6C7 5.44772 6.55228 5 6 5C5.44772 5 5 5.44772 5 6C5 6.55228 5.44772 7 6 7Z"
                fill="currentColor"
            />
            <path
                fillRule="evenodd"
                clipRule="evenodd"
                d="M12 10C12 11.1046 11.1046 12 10 12C8.89543 12 8 11.1046 8 10C8 8.89543 8.89543 8 10 8C11.1046 8 12 8.89543 12 10ZM11 10C11 10.5523 10.5523 11 10 11C9.44772 11 9 10.5523 9 10C9 9.44772 9.44772 9 10 9C10.5523 9 11 9.44772 11 10Z"
                fill="currentColor"
            />
            <path
                fillRule="evenodd"
                clipRule="evenodd"
                d="M5.51472 0C4.98429 0 4.47558 0.210714 4.1005 0.585787L0.585787 4.1005C0.210714 4.47558 0 4.98429 0 5.51472V10.4853C0 11.0157 0.210714 11.5244 0.585787 11.8995L4.1005 15.4142C4.47558 15.7893 4.98429 16 5.51472 16H10.4853C11.0157 16 11.5244 15.7893 11.8995 15.4142L15.4142 11.8995C15.7893 11.5244 16 11.0157 16 10.4853V5.51472C16 4.98429 15.7893 4.47558 15.4142 4.1005L11.8995 0.585786C11.5244 0.210714 11.0157 0 10.4853 0H5.51472ZM10.4853 1L5.51472 1C5.2495 1 4.99515 1.10536 4.80761 1.29289L1.29289 4.80761C1.10536 4.99515 1 5.2495 1 5.51472L1 10.4853C1 10.7505 1.10536 11.0049 1.29289 11.1924L4.80761 14.7071C4.99515 14.8946 5.2495 15 5.51472 15H10.4853C10.7505 15 11.0049 14.8946 11.1924 14.7071L14.7071 11.1924C14.8946 11.0049 15 10.7505 15 10.4853V5.51472C15 5.2495 14.8946 4.99515 14.7071 4.80761L11.1924 1.29289C11.0049 1.10536 10.7505 1 10.4853 1Z"
                fill="currentColor"
            />
        </svg>
