
<!--
 ~   Copyright (c) 2024, WSO2 LLC. (https://www.wso2.com). All Rights Reserved.
 ~   
 ~   This software is the property of WSO2 LLC. and its suppliers, if any.
 ~   Dissemination of any information or reproduction of any material contained
 ~   herein in any form is strictly forbidden, unless permitted by WSO2 expressly.
 ~   You may not alter or remove any copyright or other notice from copies of this content.
-->
<svg width="20" height="20" viewBox="0 0 20 20" xmlns="http://www.w3.org/2000/svg">
    <path transform="rotate(180 12 12)" d="m14.85,4.85l1.44,1.44l-2.88,2.88l1.42,1.42l2.88,-2.88l1.44,1.44a0.5,0.5 0 0 0 0.85,-0.36l0,-4.29c0,-0.28 -0.22,-0.5 -0.5,-0.5l-4.29,0a0.5,0.5 0 0 0 -0.36,0.85m-6.06,-0.85l-4.29,0c-0.28,0 -0.5,0.22 -0.5,0.5l0,4.29c0,0.45 0.54,0.67 0.85,0.35l1.44,-1.44l4.71,4.7l0,6.6c0,0.55 0.45,1 1,1s1,-0.45 1,-1l0,-7c0,-0.26 -0.11,-0.52 -0.29,-0.71l-5,-5.01l1.44,-1.44c0.31,-0.3 0.09,-0.84 -0.36,-0.84" fill="black"/>
</svg>
