
<!--
 ~   Copyright (c) 2024, WSO2 LLC. (https://www.wso2.com). All Rights Reserved.
 ~   
 ~   This software is the property of WSO2 LLC. and its suppliers, if any.
 ~   Dissemination of any information or reproduction of any material contained
 ~   herein in any form is strictly forbidden, unless permitted by WSO2 expressly.
 ~   You may not alter or remove any copyright or other notice from copies of this content.
-->
<svg width="15" height="16" viewBox="0 0 15 16" fill="none" xmlns="http://www.w3.org/2000/svg">
<path fill-rule="evenodd" clip-rule="evenodd" d="M0.399902 6.10002C0.399902 5.87911 0.578988 5.70002 0.799902 5.70002H13.4999C13.7208 5.70002 13.8999 5.87911 13.8999 6.10002V8.00002C13.8999 8.12503 13.8415 8.24285 13.7419 8.31849L8.8999 11.9984V15.1C8.8999 15.3209 8.72082 15.5 8.4999 15.5H5.7999C5.57899 15.5 5.3999 15.3209 5.3999 15.1V11.9953L0.55389 8.21543C0.456713 8.13963 0.399902 8.02327 0.399902 7.90002V6.10002ZM1.1999 6.50002V7.70473L6.04592 11.4846C6.14309 11.5604 6.1999 11.6768 6.1999 11.8V14.7H8.0999V11.8C8.0999 11.675 8.15834 11.5572 8.25787 11.4816L13.0999 7.80161V6.50002H1.1999Z" fill="black"/>
<path fill-rule="evenodd" clip-rule="evenodd" d="M2.9999 0.900024C3.22082 0.900024 3.3999 1.07911 3.3999 1.30002V4.50002C3.3999 4.72094 3.22082 4.90002 2.9999 4.90002C2.77899 4.90002 2.5999 4.72094 2.5999 4.50002V1.30002C2.5999 1.07911 2.77899 0.900024 2.9999 0.900024Z" fill="black"/>
<path fill-rule="evenodd" clip-rule="evenodd" d="M0.832316 2.70271C0.99652 2.55492 1.24944 2.56823 1.39722 2.73244L2.91518 4.41906L4.61706 2.71718C4.77327 2.56097 5.02654 2.56097 5.18274 2.71718C5.33895 2.87339 5.33895 3.12666 5.18274 3.28287L3.18274 5.28287C3.10515 5.36046 2.99908 5.40277 2.88939 5.39989C2.77969 5.397 2.67599 5.34918 2.60258 5.26761L0.802585 3.26761C0.654801 3.10341 0.668112 2.85049 0.832316 2.70271Z" fill="black"/>
<path fill-rule="evenodd" clip-rule="evenodd" d="M7.5999 0.900024C7.82082 0.900024 7.9999 1.07911 7.9999 1.30002V4.50002C7.9999 4.72094 7.82082 4.90002 7.5999 4.90002C7.37899 4.90002 7.1999 4.72094 7.1999 4.50002V1.30002C7.1999 1.07911 7.37899 0.900024 7.5999 0.900024Z" fill="black"/>
<path fill-rule="evenodd" clip-rule="evenodd" d="M5.4244 2.71002C5.58456 2.55787 5.83775 2.56436 5.9899 2.72452L7.60725 4.42699L9.31706 2.71718C9.47327 2.56097 9.72654 2.56097 9.88275 2.71718C10.039 2.87339 10.039 3.12666 9.88275 3.28287L7.88275 5.28287C7.80647 5.35914 7.70263 5.40137 7.59478 5.39999C7.48692 5.39861 7.38419 5.35373 7.3099 5.27552L5.4099 3.27552C5.25775 3.11536 5.26424 2.86218 5.4244 2.71002Z" fill="black"/>
<path fill-rule="evenodd" clip-rule="evenodd" d="M12.2999 0.900024C12.5208 0.900024 12.6999 1.07911 12.6999 1.30002V4.50002C12.6999 4.72094 12.5208 4.90002 12.2999 4.90002C12.079 4.90002 11.8999 4.72094 11.8999 4.50002V1.30002C11.8999 1.07911 12.079 0.900024 12.2999 0.900024Z" fill="black"/>
<path fill-rule="evenodd" clip-rule="evenodd" d="M10.0244 2.71002C10.1846 2.55787 10.4377 2.56436 10.5899 2.72452L12.2072 4.42699L13.9171 2.71718C14.0733 2.56097 14.3265 2.56097 14.4827 2.71718C14.639 2.87339 14.639 3.12666 14.4827 3.28287L12.4827 5.28287C12.4065 5.35914 12.3026 5.40137 12.1948 5.39999C12.0869 5.39861 11.9842 5.35373 11.9099 5.27552L10.0099 3.27552C9.85775 3.11536 9.86424 2.86218 10.0244 2.71002Z" fill="black"/>
</svg>
