<!--
 ~   Copyright (c) 2023, WSO2 LLC. (https://www.wso2.com). All Rights Reserved.
 ~   
 ~   This software is the property of WSO2 LLC. and its suppliers, if any.
 ~   Dissemination of any information or reproduction of any material contained
 ~   herein in any form is strictly forbidden, unless permitted by WSO2 expressly.
 ~   You may not alter or remove any copyright or other notice from copies of this content.
-->
<svg xmlns="http://www.w3.org/2000/svg" width="24" height="24" viewBox="0 0 24 24">
    <path fill="currentColor"
        d="m12.5 18.375l6.5-9l-6.5-6.325L6 9.375l6.5 9ZM9.75 23q-1.275 0-2.263-.763T6.15 20.276Q6 19.7 5.512 19.35T4.45 19q-.4 0-.75.163t-.6.462L1.575 18.35q.525-.65 1.275-1t1.6-.35q1.275 0 2.275.763t1.35 1.962q.15.575.625.925t1.05.35q.5 0 .9-.238t.625-.662l-6.9-9.55q-.425-.6-.363-1.338T4.6 7.95l6.575-6.4q.275-.275.625-.413T12.5 1q.35 0 .7.137t.625.413l6.575 6.4q.525.5.588 1.25t-.363 1.35L13 21.1q-.5.875-1.35 1.388T9.75 23Zm2.75-12.3Z" />
</svg>
