<?xml version="1.0" encoding="UTF-8"?><svg id="Layer_3" xmlns="http://www.w3.org/2000/svg" viewBox="0 0 16.5 16.5"><defs><style>.cls-1,.cls-2{fill:none;stroke:#000;stroke-linecap:round;stroke-linejoin:round;stroke-width:.75px;}.cls-2{fill-rule:evenodd;}</style></defs><path class="cls-2" d="M1.52,1.91h2.52c.94,0,1.8.52,2.23,1.35l.99,1.91c.43.83,1.29,1.35,2.23,1.35h.51"/><line class="cls-1" x1="1.52" y1="4.21" x2="4.71" y2="4.21"/><line class="cls-1" x1="1.52" y1="9.51" x2="4.71" y2="9.51"/><line class="cls-1" x1="1.52" y1="12.16" x2="4.71" y2="12.16"/><path class="cls-2" d="M1.52,14.59h2.52c.94,0,1.8-.52,2.23-1.35l.99-1.91c.43-.83,1.29-1.35,2.23-1.35h.51"/><line class="cls-1" x1="6.42" y1="8.25" x2="13.97" y2="8.25"/><polyline class="cls-2" points="12.95 6.33 14.98 8.32 12.95 10.17"/><line class="cls-1" x1="1.52" y1="6.86" x2="4.71" y2="6.86"/></svg>