<!--
 ~   Copyright (c) 2025, WSO2 LLC. (https://www.wso2.com). All Rights Reserved.
 ~   
 ~   This software is the property of WSO2 LLC. and its suppliers, if any.
 ~   Dissemination of any information or reproduction of any material contained
 ~   herein in any form is strictly forbidden, unless permitted by WSO2 expressly.
 ~   You may not alter or remove any copyright or other notice from copies of this content.
-->

<svg viewBox="20 0 60 60" xmlns="http://www.w3.org/2000/svg">
    <path
        fill="currentColor"
        d="m 45 5 a 5 5 0 0 1 10 0 v 20 h 20 a 5 5 0 0 1 0 10 h -20 v 20 a 5 5 0 0 1 -10 0 v -20 h -20 a 5 5 0 0 1 0 -10 h 20 v -20 z"
    />
    <path
        fill="currentColor"
        d="m 45 5 a 5 5 0 0 1 10 0 v 20 h 20 a 5 5 0 0 1 0 10 h -20 v 20 a 5 5 0 0 1 -10 0 v -20 h -20 a 5 5 0 0 1 0 -10 h 20 v -20 z"
        transform="rotate(45 50 30 )"
    />
</svg>
