<?xml version="1.0" encoding="utf-8"?>
<svg version="1.1" id="githubIcon" xmlns="http://www.w3.org/2000/svg" xmlns:xlink="http://www.w3.org/1999/xlink" x="0px"
	 y="0px" width="50" height="50" viewBox="0 0 25 25" style="enable-background:new 0 0 25 25;" xml:space="preserve">
<style type="text/css">
	.st0{fill:#222228;}
</style>
<path
    id="github"
    d="M12,0A12.155,12.155,0,0,0,0,12.3,12.281,12.281,0,0,0,8.207,23.978c.6.113.819-.267.819-.593,0-.292-.01-1.066-.016-2.092-3.338.743-4.042-1.65-4.042-1.65a3.238,3.238,0,0,0-1.333-1.8c-1.09-.763.083-.748.083-.748a2.527,2.527,0,0,1,1.838,1.268,2.52,2.52,0,0,0,3.493,1.022,2.656,2.656,0,0,1,.762-1.644c-2.665-.31-5.466-1.366-5.466-6.081a4.823,4.823,0,0,1,1.235-3.3A4.524,4.524,0,0,1,5.7,5.1S6.7,4.772,9,6.364a11.089,11.089,0,0,1,6.008,0C17.3,4.772,18.3,5.1,18.3,5.1a4.526,4.526,0,0,1,.12,3.256,4.814,4.814,0,0,1,1.233,3.3c0,4.727-2.806,5.767-5.479,6.071a2.979,2.979,0,0,1,.814,2.279c0,1.644-.015,2.971-.015,3.375,0,.329.217.712.825.592A12.285,12.285,0,0,0,24,12.3,12.155,12.155,0,0,0,12,0Z"
    fill="#161514"
    fillRule="evenodd"
/>
</svg>