<svg width="16" height="16" viewBox="32 28 46 46" fill="none" xmlns="http://www.w3.org/2000/svg">
<path d="M66.3619 61.0175H65.6179L65.4041 61.7302L63.7637 67.198L56.3121 61.2367L56.0381 61.0175H55.6874H49.2251C45.3591 61.0175 42.2251 57.8835 42.2251 54.0175V36.9609C42.2251 33.0949 45.3591 29.9609 49.2251 29.9609H66.2817C70.1477 29.9609 73.2817 33.0949 73.2817 36.9609V54.0977C73.2817 57.9194 70.1836 61.0175 66.3619 61.0175Z" stroke="#5567D5" stroke-width="3"/>
<path d="M63.6269 49.9656C62.3171 52.2299 59.8689 53.7533 57.0649 53.7533C55.9608 53.7533 54.9118 53.5171 53.9658 53.0925" stroke="#5567D5" stroke-width="3" stroke-linecap="round"/>
<circle cx="63.2628" cy="41.3571" r="2.06604" fill="#5567D5"/>
<circle cx="52.2438" cy="41.3571" r="2.06604" fill="#5567D5"/>
<path d="M42.2579 47.5552H39.3711C37.162 47.5552 35.3711 45.7643 35.3711 43.5552V35.0081" stroke="#5567D5" stroke-width="3"/>
<circle cx="35.3715" cy="33.4372" r="2.09906" stroke="#5567D5" stroke-width="3"/>
</svg>