<?xml version="1.0" encoding="UTF-8"?>
<!--
 ~   Copyright (c) 2021, WSO2 LLC. (https://www.wso2.com). All Rights Reserved.
 ~   
 ~   This software is the property of WSO2 LLC. and its suppliers, if any.
 ~   Dissemination of any information or reproduction of any material contained
 ~   herein in any form is strictly forbidden, unless permitted by WSO2 expressly.
 ~   You may not alter or remove any copyright or other notice from copies of this content."
-->
<svg width="14px" height="14px" viewBox="0 0 14 14" version="1.1" xmlns="http://www.w3.org/2000/svg" xmlns:xlink="http://www.w3.org/1999/xlink">
    <title>30444A0F-5044-410A-9B4E-F75DEA1505DB</title>
    <g id="Home" stroke="none" stroke-width="1" fill="none" fill-rule="evenodd">
        <g id="VSC-icons" transform="translate(-389.000000, -133.000000)" fill="#000000">
            <g id="new-file" transform="translate(389.000000, 133.000000)">
                <path d="M4,7 L3,7 L3,4 L0,4 L0,3 L3,3 L3,0 L4,0 L4,3 L7,3 L7,4 L4,4 L4,7 Z M10.5,1.09998 L13.9,4.59998 L14,5 L14,13.5 L13.5,14 L3.5,14 L3,13.5 L3,8 L4,8 L4,13 L13,13 L13,6 L9,6 L9,2 L5,2 L5,1 L10.2,1 L10.5,1.09998 Z M10,2 L10,5 L12.9,5 L10,2 Z" id="Shape"></path>
            </g>
        </g>
    </g>
</svg>
