<?xml version="1.0" encoding="UTF-8"?>
<!--
 ~   Copyright 2023, WSO2 LLC. (http://www.wso2.com)
 ~
 ~   Licensed under the Apache License, Version 2.0 (the "License");
 ~   you may not use this file except in compliance with the License.
 ~   You may obtain a copy of the License at
 ~
 ~        http://www.apache.org/licenses/LICENSE-2.0
 ~
 ~   Unless required by applicable law or agreed to in writing, software
 ~   distributed under the License is distributed on an "AS IS" BASIS,
 ~   WITHOUT WARRANTIES OR CONDITIONS OF ANY KIND, either express or implied.
 ~   See the License for the specific language governing permissions and
 ~   limitations under the License.
-->

<svg width="24" height="24" viewBox="0 0 24 24" fill="none" xmlns="http://www.w3.org/2000/svg">
    <path fill-rule="evenodd" clip-rule="evenodd" d="M5 1C5 0.447715 5.44772 0 6 0H18C18.5523 0 19 0.447715 19 1V3.5H22.25C23.2165 3.5 24 4.2835 24 5.25V17C24 17.9665 23.2165 18.75 22.25 18.75H17.3211L12.1414 23.9296C12.0633 24.0078 11.9367 24.0078 11.8586 23.9296L6.67896 18.75H1.75C0.783502 18.75 0 17.9665 0 17V5.25C0 4.2835 0.783502 3.5 1.75 3.5H5V1ZM6.5 7V1.5H17.5V7H6.5ZM6.75 17.25L11.8586 12.1414C11.9367 12.0633 12.0633 12.0633 12.1414 12.1414L17.25 17.25H22.25C22.3881 17.25 22.5 17.1381 22.5 17V5.25C22.5 5.11193 22.3881 5 22.25 5H19V7.5C19 8.05229 18.5523 8.5 18 8.5H6C5.44772 8.5 5 8.05229 5 7.5V5H1.75C1.61193 5 1.5 5.11193 1.5 5.25V17C1.5 17.1381 1.61193 17.25 1.75 17.25H6.75ZM12 21.9497L8.0858 18.0355L12 14.1213L15.9142 18.0355L12 21.9497Z" fill="#C5C5C5"/>
</svg>
